<svg xmlns="http://www.w3.org/2000/svg" id="Layer_2" data-name="Layer 2" viewBox="0 0 95.19 94.78"><defs><style>      .cls-1, .cls-2 {        fill: #fff;      }      .cls-2 {        fill-rule: evenodd;      }      .cls-3 {        fill: #aa1e22;      }    </style></defs><g id="Layer_1-2" data-name="Layer 1"><g><path class="cls-3" d="M47.6,0C21.31,0,0,21.22,0,47.39s21.31,47.39,47.6,47.39,47.6-21.22,47.6-47.39S73.88,0,47.6,0h0Z"></path><g><polygon class="cls-2" points="31.26 22.21 31.26 22.21 30.68 24.84 30.59 25.06 30.35 25.24 30.1 25.42 29.69 25.54 30.1 27.22 30.59 29.73 30.93 32.11 31.17 34.33 31.26 36.36 31.17 37.64 31.09 38.76 30.85 39.86 30.59 40.85 30.27 41.77 29.86 42.59 29.28 43.35 28.7 44.05 28.03 44.63 27.3 45.16 26.48 45.63 25.56 45.97 24.57 46.26 23.5 46.44 22.36 46.56 21.11 46.61 20.12 46.56 19.22 46.5 18.4 46.38 17.57 46.2 16.92 46.03 16.34 45.74 15.84 45.45 15.35 45.1 15.09 44.75 14.85 44.41 14.6 44.05 14.44 43.59 14.27 42.59 14.19 41.43 14.19 40.73 14.36 39.97 14.51 39.21 14.85 38.39 15.18 37.51 15.68 36.81 16.17 36.23 16.67 35.82 16.34 37.57 16.17 38.39 16.09 39.03 16.17 39.51 16.17 39.9 16.34 40.3 16.5 40.66 16.75 41 16.99 41.3 17.33 41.59 17.65 41.81 18.06 42.05 18.48 42.23 19.04 42.39 19.53 42.51 20.19 42.63 20.86 42.69 22.25 42.75 23.32 42.69 24.54 42.57 25.69 42.35 26.59 42.11 27.42 41.81 28.07 41.53 28.56 41.18 28.9 40.84 29.14 40.42 29.14 40.02 29.06 38.39 28.84 36.01 28.31 32.63 27.7 24.27 26.71 23.41 26.41 23.11 26.26 22.93 26.34 22.65 26.57 22.13 27.48 20.38 28.08 19.39 28.31 19.1 28.53 18.93 28.53 19.65 28.61 20.35 28.78 20.81 28.95 21.17 29.28 21.57 29.77 21.87 30.44 22.11 31.26 22.21 31.26 22.21 31.26 22.21"></polygon><polygon class="cls-2" points="44.16 38.77 44.16 38.77 45.24 38.13 46.46 37.26 47.21 36.68 47.79 36.15 48.12 35.75 48.2 35.45 48.12 35.17 48.03 34.82 47.54 33.84 46.96 32.91 46.31 32.03 45.65 31.22 44.83 30.42 43.99 29.67 43.09 28.91 42.1 28.22 41.02 27.58 39.39 26.65 38.96 26.47 38.23 26.65 37.24 26.77 36.33 26.83 35.34 26.77 34.43 26.59 33.69 26.35 33.44 26.19 33.11 25.95 32.87 25.72 32.62 25.5 32.29 24.92 32.12 24.22 32.04 23.41 32.04 23.05 32.12 22.77 32.29 22.48 32.53 22.18 32.79 21.84 33.11 21.61 33.52 21.49 33.93 21.44 34.06 21.44 34.58 21.55 35.08 21.72 35.66 21.9 37.09 22.48 38.6 23.3 39.76 23.99 40.93 24.69 41.94 25.39 42.94 26.14 44.28 27.24 45.54 28.41 46.54 29.51 47.38 30.61 47.72 31.14 48.05 31.94 48.97 34.39 49.23 33.93 49.56 33.12 50.39 30.67 50.73 29.51 50.8 28.87 50.8 22.36 51.23 21.96 52.48 20.97 54.16 19.69 54.16 27.83 54.24 28.88 54.33 29.86 54.4 30.97 54.66 32.01 55.07 33.88 55.4 35.04 55.9 35.91 56.15 36.31 56.48 36.61 56.82 36.89 57.15 37.07 57.56 37.25 57.98 37.36 58.47 37.47 59.31 37.53 61.63 37.59 61.63 41.13 57.6 41.13 57.1 41.13 56.69 41.07 56.2 40.95 55.79 40.79 55.38 40.61 55.04 40.38 54.72 40.1 54.39 39.8 53.81 38.99 53.32 38.07 52.91 36.96 52.57 35.69 52.33 33.96 52.33 32.03 52.33 30.58 51.99 32.15 51.58 33.84 50.92 35.57 50.51 36.56 50.01 37.43 49.6 38.17 49.11 38.77 48.61 39.22 48.12 39.62 47.54 39.98 46.8 40.38 46.06 40.73 45.24 41.07 44.33 41.37 43.34 41.65 41.52 42.12 39.8 42.4 37.97 42.64 36.33 42.7 36.66 42.58 37.32 42.3 39.54 41.19 44.16 38.77 44.16 38.77 44.16 38.77"></polygon><polygon class="cls-2" points="80.54 33.84 80.54 33.84 80.14 35.05 79.64 36.33 79.15 37.26 76.36 37.32 74.8 37.44 73.57 37.6 73.24 37.66 72.75 37.89 71.2 38.65 69.23 39.62 67.67 40.32 66.52 40.67 65.45 40.95 64.47 41.07 63.4 41.13 59.8 41.13 59.8 37.57 65.26 37.57 66.08 37.51 66.81 37.45 67.55 37.35 68.13 37.23 68.62 36.99 69.26 36.71 70.98 35.79 67.96 34.58 67.06 34.23 66.32 33.99 65.59 33.89 65.02 33.83 64.62 33.89 64.21 33.95 63.72 34.11 63.15 34.28 62.32 34.58 61.59 34.8 62.08 33.71 62.57 32.84 62.9 32.33 63.3 31.87 63.79 31.46 64.28 31.18 64.77 30.88 65.34 30.71 65.92 30.59 66.6 30.59 67.25 30.65 68.08 30.77 68.9 31.06 69.79 31.4 72.01 32.39 72.91 32.73 73.66 32.97 75.2 33.37 76.85 33.61 78.66 33.78 80.54 33.84 80.54 33.84 80.54 33.84"></polygon></g><g><path class="cls-1" d="M74.2,72.33c-3.06,0-6.12.01-9.17.01-4.4,0-8.79,0-13.19,0-.78,0-1.56.03-2.34.1-.35.03-.49-.09-.56-.41-.1-.42-.21-.83-.36-1.24-.12-.33.05-.32.27-.27,1.79.42,3.61.22,5.42.28.39.01.44-.15.44-.48,0-4.86,0-9.72-.01-14.58,0-.78-.07-1.55-.11-2.41.52.36,1.05.71,1.55,1.1.19.15.36.24.59.24.95,0,1.91,0,2.86,0,.2,0,.38,0,.44-.25.13-.56.27-1.11.43-1.66.1-.34-.02-.42-.34-.42-3.34.04-6.69-.08-10.03.09-.31.02-.47-.06-.56-.36-.13-.43-.28-.85-.43-1.26-.11-.3.05-.38.27-.28,1.03.44,2.12.36,3.19.38,2.56.04,5.13,0,7.69.02.36,0,.51-.09.54-.46.06-.75.16-1.49.16-2.24,0-.22.03-.38.32-.33.77.12,1.54.2,2.3.43.34.11.49.32.51.66.02.33-.15.54-.43.68-.14.07-.29.16-.44.17-.45.05-.55.35-.62.72-.06.33.08.38.35.37,1.42,0,2.84,0,4.25,0,.99,0,1.98,0,2.96,0,.28,0,.45-.1.61-.35.29-.43.67-.81.99-1.22.18-.23.32-.11.48,0,.7.49,1.38,1,1.97,1.63v1.24c-.27.14-.56.12-.84.12-3.5,0-7.01,0-10.51,0-.43,0-.58.13-.63.54-.06.45-.19.9-.32,1.34-.1.33-.05.46.33.45,1.5-.02,2.99-.02,4.49,0,.5,0,.89-.06,1.09-.59.08-.22.27-.39.41-.58.09-.13.19-.23.35-.13.7.42,1.37.87,1.74,1.64.11.22.07.43-.07.63-.15.21-.35.36-.55.52-.26.2-.4.44-.4.8.01,4.11,0,8.21.02,12.32,0,.49-.22,1.13.1,1.42.31.28.94.05,1.43.09.25.02.42-.08.56-.27.3-.41.62-.8.92-1.21.15-.21.28-.22.5-.08.5.31.85.81,1.38,1.07v2.01ZM62.01,60c-1.7,0-3.4.01-5.11,0-.38,0-.5.11-.48.49.03.59.03,1.18,0,1.77-.02.37.13.47.47.46.67-.02,1.34,0,2,0,2.69,0,5.37,0,8.06.01.45,0,.58-.13.56-.57-.03-.55-.04-1.12,0-1.67.03-.4-.13-.48-.49-.48-1.67.02-3.34,0-5.01,0ZM61.97,66.8c1.7,0,3.4,0,5.1,0,.32,0,.45-.08.44-.43-.02-.6-.02-1.21,0-1.81,0-.27-.09-.37-.36-.37-3.45,0-6.9,0-10.36,0-.31,0-.37.14-.37.41.01.57.03,1.15,0,1.72-.02.38.11.49.48.49,1.69-.02,3.37,0,5.06,0ZM62.01,58.56c1.67,0,3.34,0,5.02,0,.23,0,.5.06.49-.33-.02-.61-.01-1.21,0-1.82,0-.25-.09-.34-.34-.34-3.46,0-6.91,0-10.37,0-.31,0-.37.14-.37.41.01.53.03,1.05,0,1.58-.03.41.13.51.52.51,1.69-.02,3.38,0,5.06,0ZM61.96,70.81c1.67,0,3.34-.01,5.01,0,.4,0,.58-.07.54-.52-.04-.47-.03-.96,0-1.43.02-.37-.08-.51-.47-.49-.91.03-1.81,0-2.72,0-2.46,0-4.93.01-7.39,0-.41,0-.52.13-.5.52.03.48.03.96,0,1.43-.03.42.15.5.52.5,1.67-.02,3.34,0,5.01,0Z"></path><path class="cls-1" d="M36.51,72.05c-1.4,0-2.8,0-4.2,0-.31,0-.43.07-.49.4-.29,1.5-.75,2.93-1.73,4.14-.46.57-.99,1.06-1.61,1.47-.27.18-.42.05-.62-.1-.23-.17-.18-.32-.04-.51.09-.11.14-.25.23-.36,1.32-1.56,1.81-3.44,2.06-5.4.39-3.11.24-6.24.14-9.36,0-.17-.11-.41.05-.48.17-.08.33.12.48.23.64.48,1.26.88,2.14.86,2.5-.05,5-.05,7.5,0,.65.01.99-.24,1.25-.77.38-.76.28-.81,1.11-.21.37.27.73.61,1.02.99.39.52.43.95-.12,1.3-.62.39-.66.9-.66,1.53.02,3.01-.01,6.03.02,9.04.01,1.21-.4,2.17-1.4,2.85-.19.13-.43.2-.65.28-.7.25-.8.2-.87-.51-.05-.47-.34-.7-.71-.87-.71-.34-1.48-.5-2.26-.57-.39-.04-.51-.19-.49-.57.04-.95-.15-.88.87-.72,1.02.17,2.05.31,3.09.3.56,0,.63-.07.63-.64,0-.64-.02-1.28,0-1.91.01-.34-.11-.43-.44-.43-1.43.01-2.87,0-4.3,0ZM36.77,64.45h0c-1.37,0-2.74.01-4.11,0-.33,0-.45.1-.43.43.02.52.02,1.05,0,1.58,0,.25.08.34.33.34,2.78,0,5.57,0,8.35,0,.25,0,.34-.09.34-.33-.01-.51-.03-1.02,0-1.53.03-.42-.15-.5-.52-.49-1.32.02-2.64,0-3.96,0ZM36.65,70.55c1.4,0,2.8,0,4.2,0,.28,0,.41-.05.4-.36-.02-.49-.01-.99,0-1.48,0-.24-.08-.34-.33-.34-2.79,0-5.57,0-8.36,0-.25,0-.33.09-.34.34-.01.48-.04.96-.1,1.43-.04.35.08.42.42.42,1.37-.02,2.74,0,4.11,0Z"></path><path class="cls-1" d="M38.71,60.78c-2.1,0-4.21-.01-6.31,0-1.24,0-2.48.05-3.72.11-.41.02-.61-.11-.71-.51-.09-.37-.21-.73-.35-1.09-.1-.25-.1-.35.22-.3,2.42.41,4.86.21,7.29.26.35,0,.44-.12.42-.44-.02-.45-.03-.89,0-1.34.02-.36-.09-.46-.45-.46-1.58.02-3.15-.02-4.73.11-.39.03-.58-.09-.67-.47-.1-.42-.24-.82-.37-1.23-.07-.21-.04-.31.21-.25,1.84.42,3.71.28,5.57.31.33,0,.46-.09.44-.43-.02-.46-.03-.93,0-1.39.02-.34-.11-.43-.43-.43-1.96.02-3.92-.04-5.87.12-.37.03-.55-.07-.63-.44-.09-.43-.24-.86-.38-1.28-.07-.21,0-.27.2-.23,2.2.51,4.44.25,6.67.32.37.01.46-.12.45-.47-.02-.83.02-1.66-.08-2.48-.04-.34.05-.44.41-.41.88.07,1.69.39,2.5.7.32.12.54.36.56.71.02.35-.24.52-.53.66-.28.14-.53.32-.83.42-.31.11-.13.45-.14.68-.01.2.18.18.32.18,1.35,0,2.71,0,4.06,0,.22,0,.39-.07.54-.24.32-.37.66-.73.93-1.15.15-.23.31-.28.54-.07.6.54,1.22,1.07,1.82,1.6.32.28.35.63.21,1-.13.34-.44.37-.76.37-2.39,0-4.78,0-7.17-.01-.39,0-.54.09-.5.5.04.47.02.96,0,1.43,0,.23.08.31.31.3,1.08,0,2.17,0,3.25,0,.19,0,.34-.06.46-.21.26-.32.58-.58.79-.95.15-.27.37-.45.66-.12.49.55,1.11.94,1.66,1.42.32.29.36.63.25,1-.12.38-.45.39-.78.39-2.04,0-4.08,0-6.12,0-.37,0-.51.09-.48.47.03.48.01.96,0,1.43,0,.25.08.33.33.33,1.74,0,3.47.01,5.21,0,.57,0,.78-.56,1.07-.93.66-.85.54-.82,1.29-.08.38.37.81.66,1.21,1,.23.2.45.4.46.74.02.56-.18.79-.75.79-2.52,0-5.04,0-7.55,0Z"></path><path class="cls-1" d="M27.28,64.61c-.2.57-.37,1.12-.58,1.65-1.17,2.9-2.34,5.81-3.74,8.61-.19.38-.12.82-.26,1.21-.09.27-.1.63-.42.7-.33.07-.47-.28-.65-.48-.48-.56-.77-1.24-1.18-1.85-.09-.13-.1-.25.01-.39.28-.35.53-.71.81-1.06,1.02-1.26,2.02-2.54,2.9-3.89.43-.66.68-1.43,1.03-2.14.48-.98.98-1.96,1.47-2.94.09-.19.16-.23.27-.01.11.21.23.41.34.6Z"></path><path class="cls-1" d="M59.92,74.47c-.04.36-.26.58-.6.56-.7-.05-1.21.25-1.76.64-.84.6-1.85.92-2.75,1.43-1.26.72-2.64,1.06-4.03,1.39-.32.07-.45,0-.51-.28-.01-.06-.05-.12-.07-.18-.22-.55-.2-.6.37-.83,1.09-.44,2.19-.87,3.2-1.48.95-.57,1.98-1.03,2.78-1.83.32-.32.62-.68.91-1.04.17-.21.3-.27.55-.11.55.35,1.12.65,1.6,1.11.19.18.28.38.32.62Z"></path><path class="cls-1" d="M72.76,77.36c0,.42-.03.76-.38.97-.36.21-.72.12-1.03-.11-.35-.25-.7-.5-1-.8-.2-.19-.4-.36-.63-.5-1.63-1.01-3.26-2.03-5.04-2.75-.36-.14-.41-.32-.27-.63.08-.17.16-.35.23-.53.07-.18.19-.22.38-.17,2.15.49,4.17,1.32,6.11,2.33.62.32,1.05.91,1.47,1.47.16.22.19.5.17.73Z"></path><path class="cls-1" d="M25.64,60.82c-.01.66-.22.99-.69,1.11-.53.14-.97-.04-1.26-.6-.75-1.49-1.79-2.72-3.13-3.7-.42-.31.02-.52.08-.77.06-.25.23-.29.47-.2,1.49.56,2.81,1.38,3.9,2.55.42.45.64.98.62,1.6Z"></path><path class="cls-1" d="M27.43,53.14c0,.59-.23,1-.63,1.12-.54.16-1.03-.03-1.34-.56-.31-.52-.54-1.08-.87-1.59-.53-.82-1.24-1.49-2.01-2.07-.46-.34-.09-.55.02-.83.13-.33.32-.29.6-.16,1.21.54,2.32,1.23,3.26,2.19.65.66.98,1.24.98,1.9Z"></path></g></g></g></svg>