<svg xmlns="http://www.w3.org/2000/svg" id="Layer_2" data-name="Layer 2" viewBox="0 0 10.36 53.25"><defs><style>      .cls-1 {        fill: #fff;      }    </style></defs><g id="Layer_1-2" data-name="Layer 1"><g><path class="cls-1" d="M5.42,53.2c.64-.38,1.25-.81,1.79-1.17-.72-.49-1.42-.97-2.02-1.38-.67.45-1.35.91-2.04,1.38.51.34,1.09.75,1.71,1.13.15.09.43.12.57.04Z"></path><path class="cls-1" d="M3.83,50.01c.26-.47.08-1.16-.38-1.4-.44-.23-.94-.02-1.21.52-.07.14-.13.29-.19.44-.75-.31-1.18-.99-1.13-1.75.05-.79.47-1.31,1.25-1.49.54-.12,1.09-.18,1.63-.27-.13-1.48.28-2.48,1.4-3.4,1.01.92,1.63,2.01,1.37,3.44.32.03.56.05.81.09.24.03.49.07.73.12.84.2,1.26.66,1.32,1.42.08.85-.28,1.46-1.12,1.84-.05-.11-.08-.19-.11-.26-.17-.45-.44-.88-.98-.73-.29.08-.61.4-.74.69-.21.47.04.88.45,1.17.51.37,1.05.4,1.64.16,1.51-.6,2.62-2.92,1-4.62-1.07-1.12-2.1-2.27-3.1-3.44-.32-.38-.62-.8-.83-1.25v-15.47h-.89v15.34c-.09.22-.19.44-.32.66-.64,1.1-1.62,2.01-2.46,2.99-.5.57-1.11,1.06-1.53,1.68-.98,1.42-.14,3.65,1.51,4.16.76.24,1.58-.03,1.91-.62Z"></path></g><g><path class="cls-1" d="M4.94.05c-.64.38-1.25.81-1.79,1.17.72.49,1.42.97,2.02,1.38.67-.45,1.35-.91,2.04-1.38-.51-.34-1.09-.75-1.71-1.13-.15-.09-.43-.12-.57-.04Z"></path><path class="cls-1" d="M6.53,3.24c-.26.47-.08,1.16.38,1.4.44.23.94.02,1.21-.52.07-.14.13-.29.19-.44.75.31,1.18.99,1.13,1.75-.05.79-.47,1.31-1.25,1.49-.54.12-1.09.18-1.63.27.13,1.48-.28,2.48-1.4,3.4-1.01-.92-1.63-2.01-1.37-3.44-.32-.03-.56-.05-.81-.09-.24-.03-.49-.07-.73-.12-.84-.2-1.26-.66-1.32-1.42-.08-.85.28-1.46,1.12-1.84.05.11.08.19.11.26.17.45.44.88.98.73.29-.08.61-.4.74-.69.21-.47-.04-.88-.45-1.17-.51-.37-1.05-.4-1.64-.16C.29,3.27-.82,5.59.8,7.29c1.07,1.12,2.1,2.27,3.1,3.44.32.38.62.8.83,1.25v15.47h.89v-15.34c.09-.22.19-.44.32-.66.64-1.1,1.62-2.01,2.46-2.99.5-.57,1.11-1.06,1.53-1.68.98-1.42.14-3.65-1.51-4.16-.76-.24-1.58.03-1.91.62Z"></path></g></g></svg>