<svg xmlns="http://www.w3.org/2000/svg" id="Layer_2" data-name="Layer 2" viewBox="0 0 548 155.05"><defs><style>      .cls-1 {        fill: #a91e22;      }      .cls-1, .cls-2, .cls-3 {        stroke-width: 0px;      }      .cls-2 {        fill: #d09e43;      }      .cls-3 {        fill: #fff;      }    </style></defs><g id="Layer_1-2" data-name="Layer 1"><g><g><path class="cls-1" d="M391.84,54.17c-.38.78-.91,1.44-1.59,1.99-.68.55-1.48.96-2.43,1.23-.94.26-1.97.4-3.09.4-.96,0-1.78-.06-2.47-.18s-1.25-.27-1.7-.44-.79-.33-1.01-.48c-.23-.14-.37-.21-.43-.21s-.19.12-.38.37-.37.48-.53.71h-.27l-.09-6.1h.29c.18.55.4,1.09.68,1.61.27.52.57,1.01.9,1.47.32.46.67.86,1.03,1.21.36.35.71.61,1.04.8.33.18.77.37,1.32.55.55.18,1.08.28,1.59.28,1.45,0,2.63-.42,3.53-1.24.9-.83,1.35-1.95,1.35-3.36,0-.57-.09-1.07-.26-1.5-.18-.43-.42-.8-.72-1.12-.3-.32-.66-.59-1.07-.81-.41-.23-.85-.43-1.32-.61-.47-.18-.88-.34-1.24-.46-.35-.12-.68-.24-.98-.35-.3-.11-.62-.23-.94-.34s-.71-.26-1.16-.44c-.51-.2-1-.49-1.47-.84-.47-.36-.88-.78-1.23-1.26s-.64-1.01-.85-1.6c-.22-.58-.32-1.2-.32-1.86,0-1.1.19-2.06.58-2.85.39-.8.91-1.46,1.56-1.99.65-.53,1.4-.92,2.26-1.18.85-.26,1.75-.38,2.69-.38.88,0,1.64.08,2.26.23.63.15,1.14.32,1.54.51.4.18.71.35.91.51.21.15.32.23.34.23.06,0,.18-.12.37-.37.19-.24.36-.49.51-.74h.32v5.68h-.32c-.23-.67-.54-1.34-.91-2.01-.37-.66-.8-1.26-1.29-1.78-.49-.52-1.05-.95-1.68-1.27s-1.32-.49-2.09-.49c-.61,0-1.18.09-1.72.28-.54.18-1.01.46-1.41.83-.4.37-.72.82-.94,1.37s-.34,1.16-.34,1.86c0,1.08.31,1.95.94,2.61.62.66,1.44,1.18,2.43,1.56.39.16.76.31,1.1.43.34.12.68.24,1.01.35.33.11.67.23,1.01.35.34.12.7.25,1.07.4,1.33.51,2.36,1.25,3.09,2.22.73.97,1.1,2.18,1.1,3.64,0,.98-.19,1.86-.57,2.64Z"></path><path class="cls-1" d="M412.96,57.58v-.31c.06,0,.2-.02.43-.06s.46-.11.71-.21.46-.25.65-.43c.19-.18.28-.42.28-.71,0-.18-.05-.49-.16-.9-.11-.42-.26-.93-.46-1.53-.2-.6-.42-1.27-.68-2.01-.25-.74-.53-1.5-.82-2.3h-7.82c-.29.78-.58,1.52-.85,2.22-.28.71-.55,1.42-.82,2.13-.41,1.1-.62,1.88-.62,2.33,0,.27.08.49.23.66s.36.32.6.43c.24.11.51.19.79.25.28.05.55.1.81.14v.31h-6.26v-.34c.51-.06.94-.2,1.31-.43.36-.23.57-.38.63-.46.14-.14.36-.48.68-1.01s.7-1.32,1.15-2.36c.41-.96.87-2.06,1.38-3.28.51-1.23,1.03-2.49,1.57-3.79.54-1.3,1.07-2.61,1.6-3.93.53-1.32,1.03-2.55,1.5-3.7l-.29-.67c.35-.16.67-.36.95-.58.28-.22.53-.46.75-.71.21-.24.4-.48.54-.71.15-.23.26-.41.34-.55h.23c.61,1.7,1.19,3.31,1.73,4.83.55,1.52,1.07,2.99,1.57,4.4.5,1.41.98,2.78,1.45,4.1.47,1.32.94,2.62,1.41,3.91.21.63.42,1.16.6,1.58.18.42.4.89.63,1.43.04.08.13.23.27.43.14.2.32.41.54.63.23.21.51.4.84.57.33.16.72.26,1.17.28v.37h-8.58ZM409.11,38.99c-.12.27-.29.69-.51,1.26-.23.57-.51,1.27-.84,2.09-.33.82-.7,1.74-1.1,2.78-.4,1.03-.84,2.15-1.31,3.36h7.32c-.33-.92-.67-1.84-1.01-2.76-.34-.92-.68-1.8-1-2.65-.32-.85-.62-1.62-.88-2.33-.26-.71-.48-1.28-.66-1.73Z"></path><path class="cls-1" d="M444.39,40.8c-.8-1.04-1.57-1.93-2.29-2.67-.73-.74-1.43-1.28-2.12-1.62-.33-.16-.94-.3-1.81-.42-.87-.11-1.89-.17-3.04-.17-.2,0-.42,0-.68.02-.25,0-.5.02-.74.03-.24,0-.46.02-.66.03-.21,0-.36.01-.46.01-.02.12-.04.24-.07.37s-.05.27-.07.43c-.02.16-.04.37-.06.63-.02.25-.04.57-.06.94-.02.72-.03,1.5-.05,2.35,0,.85-.01,1.65-.01,2.41v2.91h.53c.31,0,.66-.01,1.04-.03.38-.02.78-.05,1.19-.08s.75-.08,1.03-.14c.71-.16,1.26-.38,1.68-.64.41-.27.74-.58.97-.95.24-.37.4-.77.5-1.21.1-.44.19-.91.26-1.43h.35v9.88h-.35c-.16-.66-.38-1.34-.68-2.07s-.65-1.28-1.06-1.67c-.37-.35-.77-.61-1.19-.78s-.92-.28-1.48-.32c-.29-.02-.55-.04-.76-.05-.22-.01-.42-.02-.62-.02h-1.41v3.8c0,.57,0,1.1.01,1.58.01.48.02.9.02,1.24.02.66.05,1.27.1,1.86.05.58.16,1.02.34,1.3.18.29.47.51.9.66.42.15,1.03.25,1.84.29v.31h-9.41v-.31c.49-.08.94-.22,1.37-.4.42-.18.77-.44,1.04-.77.1-.12.18-.3.23-.54s.11-.51.16-.81c.05-.31.08-.63.1-.97.02-.34.03-.67.03-1,0-.29,0-.67.02-1.17,0-.49.02-1.03.03-1.61,0-.58.01-1.18.01-1.79v-7.76c0-.37,0-.75-.01-1.14-.01-.39-.03-.76-.06-1.1-.03-.35-.08-.66-.15-.94s-.16-.48-.28-.6c-.29-.33-.61-.54-.94-.63-.33-.09-.76-.18-1.29-.26v-.31h16.34l2,5.15-.29.15Z"></path><path class="cls-1" d="M469.5,40.8c-.8-1.04-1.57-1.93-2.29-2.67-.73-.74-1.43-1.28-2.12-1.62-.33-.16-.94-.3-1.81-.42-.87-.11-1.89-.17-3.04-.17-.2,0-.42,0-.68.02-.25,0-.5.02-.74.03-.24,0-.46.02-.66.03-.21,0-.36.01-.46.01-.02.12-.04.24-.07.37s-.05.27-.07.43c-.02.16-.04.37-.06.63-.02.25-.04.57-.06.94-.02.72-.03,1.5-.05,2.35,0,.85-.01,1.65-.01,2.41v2.91h.53c.31,0,.66-.01,1.04-.03.38-.02.78-.05,1.19-.08s.75-.08,1.03-.14c.71-.16,1.26-.38,1.68-.64.41-.27.74-.58.97-.95.24-.37.4-.77.5-1.21.1-.44.19-.91.26-1.43h.35v9.88h-.35c-.16-.66-.38-1.34-.68-2.07-.29-.73-.65-1.28-1.06-1.67-.37-.35-.77-.61-1.19-.78-.42-.17-.92-.28-1.48-.32-.29-.02-.55-.04-.76-.05-.22-.01-.42-.02-.62-.02h-1.41v3.8c0,.57,0,1.1.01,1.58.01.48.02.9.02,1.24.02.66.05,1.27.1,1.86.05.58.16,1.02.34,1.3.18.29.47.51.9.66.42.15,1.03.25,1.84.29v.31h-9.41v-.31c.49-.08.94-.22,1.37-.4.42-.18.77-.44,1.04-.77.1-.12.18-.3.23-.54s.11-.51.16-.81c.05-.31.08-.63.1-.97.02-.34.03-.67.03-1,0-.29,0-.67.02-1.17,0-.49.02-1.03.03-1.61,0-.58.01-1.18.01-1.79v-7.76c0-.37,0-.75-.01-1.14-.01-.39-.03-.76-.06-1.1-.03-.35-.08-.66-.15-.94s-.16-.48-.28-.6c-.29-.33-.61-.54-.94-.63-.33-.09-.76-.18-1.29-.26v-.31h16.34l2,5.15-.29.15Z"></path><path class="cls-1" d="M490.69,57.58c-.18-.18-.3-.32-.38-.41-.08-.09-.17-.2-.26-.32s-.22-.3-.37-.54c-.15-.24-.38-.59-.69-1.06-.37-.57-.7-1.09-.98-1.55-.28-.46-.57-.91-.87-1.37-.29-.45-.61-.9-.95-1.36-.34-.46-.75-.98-1.22-1.55-.39-.47-.82-.91-1.28-1.32-.46-.41-.95-.66-1.46-.77-.37-.08-.66-.12-.85-.12-.18,0-.4,0-.68-.03v3.47c0,.98,0,1.81.03,2.48.02.66.04,1.22.06,1.69.02.47.13.86.32,1.16.16.27.46.54.91.81.45.28,1.08.43,1.88.48v.31h-9.41v-.31c.49-.08.96-.2,1.41-.37.45-.16.8-.41,1.06-.74.1-.12.18-.31.23-.55.06-.24.1-.52.13-.83.03-.31.05-.63.07-.98.02-.35.03-.68.03-1.01,0-.29,0-.67.02-1.17,0-.49.02-1.03.03-1.61,0-.58.01-1.18.01-1.79v-7.76c0-.37,0-.74-.01-1.12-.01-.38-.03-.74-.06-1.07s-.08-.64-.15-.92-.16-.48-.28-.6c-.29-.33-.62-.55-.98-.66-.36-.11-.81-.21-1.34-.29v-.31h1.21c.67,0,1.42,0,2.26-.01s1.69-.02,2.53-.02h2.06c1.31,0,2.48.04,3.5.12,1.02.08,1.95.36,2.79.83.86.47,1.56,1.11,2.09,1.92.53.81.79,1.83.79,3.05,0,.76-.13,1.44-.4,2.04-.27.6-.62,1.14-1.06,1.6-.44.46-.96.85-1.54,1.18-.59.33-1.2.6-1.85.83v.09c.33.18.66.45.97.8.31.35.62.74.91,1.17.51.78,1.06,1.62,1.66,2.52.6.9,1.13,1.7,1.6,2.39.72,1.06,1.43,1.84,2.12,2.33.69.49,1.49.81,2.41.95v.31h-6.03ZM487.79,38.47c-.49-.8-1.21-1.43-2.15-1.9-.47-.22-.97-.39-1.49-.49s-1.06-.15-1.63-.15c-.41,0-.75.01-1,.03-.26.02-.45.04-.59.06-.02.12-.04.23-.06.32-.02.09-.03.21-.04.35-.01.14-.02.34-.03.6s-.02.62-.04,1.09c-.02.72-.03,1.52-.05,2.42,0,.9-.01,1.77-.01,2.61v3.37c.8,0,1.55-.04,2.25-.11.69-.07,1.37-.22,2.01-.44.63-.2,1.17-.48,1.62-.83.45-.35.82-.74,1.1-1.18.28-.44.5-.91.63-1.43.14-.51.21-1.04.21-1.59,0-1.02-.25-1.93-.74-2.73Z"></path><path class="cls-1" d="M520.87,50.92c-.59,1.39-1.39,2.6-2.4,3.62-1.01,1.02-2.18,1.81-3.53,2.36-1.34.55-2.77.83-4.28.83s-2.9-.27-4.23-.81c-1.33-.54-2.5-1.31-3.5-2.3-1-.99-1.79-2.18-2.37-3.56-.58-1.38-.87-2.9-.87-4.56,0-1.76.3-3.34.91-4.74s1.43-2.59,2.45-3.56c1.03-.97,2.23-1.72,3.62-2.24,1.38-.52,2.84-.78,4.37-.78,1.67,0,3.16.31,4.48.92,1.32.61,2.44,1.44,3.37,2.47.92,1.03,1.63,2.22,2.12,3.57.49,1.35.74,2.76.74,4.23,0,1.64-.3,3.15-.88,4.54ZM517.65,42.64c-.3-1.27-.76-2.42-1.38-3.45-.62-1.03-1.39-1.87-2.31-2.52-.92-.65-2.01-.97-3.26-.97s-2.38.32-3.31.97c-.93.64-1.7,1.48-2.29,2.5-.6,1.02-1.04,2.18-1.32,3.48-.28,1.3-.43,2.61-.43,3.94s.16,2.73.47,4.02c.31,1.29.78,2.42,1.4,3.41.62.98,1.39,1.77,2.32,2.36.93.59,2.01.89,3.25.89s2.31-.33,3.22-.98c.91-.66,1.67-1.5,2.28-2.53.61-1.03,1.06-2.19,1.37-3.48.3-1.29.46-2.58.46-3.86s-.15-2.51-.46-3.77Z"></path><path class="cls-1" d="M546.05,36.38c-.44.29-.78.73-1.01,1.32-.14.31-.23.87-.26,1.7-.04.83-.08,1.71-.12,2.65-.04.88-.07,1.92-.1,3.11-.03,1.2-.05,2.48-.05,3.85v1.96c0,.72,0,1.45.02,2.19,0,.75.01,1.49.01,2.22v1.99c0,.08-.02.15-.07.2s-.12.08-.22.08c-.16,0-.33-.1-.53-.31-1.67-2-3.19-3.84-4.56-5.52-1.37-1.68-2.68-3.28-3.93-4.8-1.24-1.52-2.46-3.01-3.66-4.46-1.2-1.45-2.46-2.95-3.79-4.51v12.95c0,1.04.02,1.98.07,2.82.05.84.17,1.46.37,1.87.22.47.55.82,1.01,1.06.46.24,1.09.4,1.9.51v.31h-7.23v-.31c.47-.06.94-.19,1.41-.38.47-.19.84-.52,1.12-.96.27-.43.45-1.06.53-1.9.08-.84.14-1.84.18-3.01.04-.88.07-1.92.09-3.11.02-1.2.03-2.48.03-3.85v-3.74c0-.41-.01-.91-.03-1.5-.06-.59-.2-1.08-.41-1.46s-.47-.67-.76-.89c-.29-.21-.61-.37-.96-.46-.34-.09-.67-.16-.98-.2v-.31h5.97l13.93,17v-10.43c0-.82-.01-1.6-.03-2.35-.02-.75-.11-1.33-.26-1.76-.2-.57-.54-1.04-1.04-1.4-.5-.36-1.22-.61-2.16-.75v-.31h7.29v.31c-.73.1-1.31.3-1.75.58Z"></path></g><g><path class="cls-2" d="M386.63,89.62c.11.03.17.14.17.34,0,.26-.19.78-.55,1.58-1.99,4.7-3.22,7.69-3.67,8.97-.29.77-.53,1.57-.73,2.39-.34,1.37-.74,2.05-1.19,2.05-.43,0-.93-.61-1.5-1.84-.63-1.59-.94-2.67-.94-3.24,0-.48.11-.83.34-1.02.94-.54,1.64-1.08,2.09-1.62.97-1.02,2.9-3.5,5.81-7.43.03-.09.09-.14.17-.17ZM379.29,84.15c.43,0,.94.06,1.54.17,1.45.34,2.55.74,3.29,1.2.65.43.98,1.05.98,1.88,0,.43-.21.84-.64,1.24-.48.43-.95.64-1.41.64-.34,0-.7-.2-1.07-.6-.66-.57-1.58-1.84-2.78-3.8-.17-.2-.26-.34-.26-.43.03-.2.14-.3.34-.3ZM383.34,75.23c.43,0,.92.09,1.49.26,1.37.34,2.41.77,3.12,1.28.6.48.9,1.18.9,2.09,0,.4-.21.83-.64,1.28-.48.4-.95.6-1.41.6-.31,0-.64-.2-.98-.6-.6-.66-1.45-2.02-2.56-4.1-.14-.23-.21-.38-.21-.47.03-.23.13-.34.3-.34ZM406.45,78.17c.43,0,1.39.36,2.9,1.07,1.94,1.11,2.9,1.95,2.9,2.52,0,.4-.37.68-1.11.85-1.37.34-3.33,1.25-5.89,2.73-.11,0-.17-.13-.17-.38.54-1.31.81-2.26.81-2.86s-.33-.9-.98-.9c-1.17.2-2.31.41-3.42.64-.09,2.02-.14,4.43-.17,7.22.63-.26,1.27-.54,1.92-.85.31-.09.57-.13.77-.13.51,0,1.31.23,2.39.68,1.28.83,1.92,1.57,1.92,2.22l-.34.3c-.97.85-1.78,2.01-2.43,3.46-.6,1.45-1.25,2.69-1.96,3.72-.23.29-.48.58-.77.9,2.79,2.02,7.46,3.94,14.01,5.76,0,.46-.31.74-.94.86-3.93.68-6.22,1.02-6.88,1.02-1.22,0-2.03-.21-2.43-.64-1.74-1.57-3.59-3.36-5.55-5.38-1.05.91-2.18,1.65-3.37,2.22-1.31.6-2.53,1.03-3.67,1.28-1.08.31-2.01.47-2.78.47-.34,0-.51-.1-.51-.3,0-.11.17-.2.51-.26.6-.23,1.24-.5,1.92-.81,1.22-.54,2.39-1.15,3.5-1.83,1.02-.74,1.92-1.55,2.69-2.43.03-.03.06-.06.09-.09-.66-.68-1.31-1.39-1.96-2.14-1.05-1.2-2.21-2.09-3.46-2.69-.48-.11-.73-.46-.73-1.03,0-.23.4-.34,1.19-.34.54,0,1.12.1,1.75.3.77.51,1.5,1.18,2.18,2.01.65.77,1.42,1.54,2.31,2.31.17-.23.33-.46.47-.68.48-.94,1-2.29,1.54-4.06.23-.54.34-.95.34-1.24,0-.34-.17-.51-.51-.51-1.59.29-3,.6-4.23.94-.63.14-1.11.21-1.45.21-.57,0-1.17-.26-1.79-.77-.48-.45-.73-.82-.73-1.11,0-.11.1-.17.3-.17,1.05,0,2.09-.09,3.12-.26.09-2.82.14-5.27.17-7.34-1.2.29-2.35.63-3.46,1.02-.2.03-.37.06-.51.09-.14,4.64-.51,8.09-1.11,10.33-.6,2.85-1.39,5.14-2.39,6.87-1,1.45-2.29,2.73-3.89,3.84-.94.57-1.54.85-1.79.85-.11,0-.17-.06-.17-.17,1.62-2.31,2.86-4.45,3.71-6.45.77-1.88,1.32-4.11,1.67-6.7.28-2.16.43-4.65.43-7.47,0-.88-.33-2.06-.98-3.55-.06-.11-.09-.21-.09-.3,0-.31.24-.47.73-.47,1.05,0,2.03.14,2.95.43.37.09.64.19.81.3,1.42-.23,2.8-.48,4.14-.77.03-3.22-.03-5.22-.17-6.02-.31-.8-.64-1.41-.98-1.84-.29-.54-.44-.92-.47-1.15,0-.57.3-.85.9-.85,1,0,1.98.24,2.95.73,1.42.51,2.14,1.01,2.14,1.49-.03.31-.04.66-.04,1.03-.29.85-.51,2.73-.68,5.64,1.22-.37,2.41-.75,3.55-1.15.4-.14.84-.21,1.32-.21Z"></path><path class="cls-2" d="M437.53,75.91c.23,0,.64.11,1.24.34.77.46,1.15.85,1.15,1.2s-.06.63-.17.85c-.11.29-.29.47-.51.55-.71.17-1.39.34-2.05.51l-.34,11.19s.06-.01.09-.04c.51-.06.98-.09,1.41-.09,1.37.09,2.05.84,2.05,2.26,0,.29-.63.44-1.88.47-2.08.11-4.47.41-7.17.9-2.19.37-4.97.98-8.33,1.84l-.73.17c-.23,0-.77-.28-1.62-.85-.94-.74-1.41-1.41-1.41-2.01,0-.11.11-.17.34-.17,1.54-.03,3.17-.14,4.91-.34.66-.09,1.39-.2,2.22-.34-.03-4.92-.1-8.64-.21-11.14-1.62,0-2.66-.36-3.12-1.07-.37-.46-.55-.78-.55-.98s.11-.3.34-.3c1.11-.09,2.16-.17,3.16-.26-.06-.46-.11-.81-.17-1.07-.34-.71-.67-1.28-.98-1.71-.29-.48-.44-.84-.47-1.07,0-.48.21-.73.64-.73,1,0,1.96.24,2.9.73,1.39.46,2.09.91,2.09,1.37-.03.31-.04.64-.04.98-.06.23-.11.56-.17.98.71-.11,1.38-.26,2.01-.43l1.62-.43c-.06-1.11-.14-2.16-.26-3.16-.03-.74-.27-1.45-.73-2.14-.06-.14-.09-.24-.09-.3,0-.31.36-.47,1.07-.47.8,0,1.71.19,2.73.55,1.02.48,1.54.93,1.54,1.32,0,.09-.07.23-.21.43-.17.46-.33,1.27-.47,2.43h.17ZM426.26,95.43c.28,0,1.05.14,2.31.43,1.2.37,1.79.8,1.79,1.28,0,.11-.1.23-.3.34-.54.37-1.14.9-1.79,1.58-1.28,1.23-2.48,2.19-3.59,2.9-.66.37-1.47.73-2.43,1.07-.26.14-.47.21-.64.21-.09,0-.13-.06-.13-.17.77-.83,1.47-1.75,2.09-2.78.91-1.25,1.54-2.39,1.88-3.42.17-.23.26-.67.26-1.32,0-.09.18-.13.55-.13ZM429.89,87.19c.94-.31,1.57-.53,1.88-.64.06-.03.16-.04.3-.04.91,0,1.48.19,1.71.55l.04-6.92c-.94.17-1.89.34-2.86.51-.37.06-.71.11-1.02.17-.03.68-.04,1.41-.04,2.18.8-.26,1.31-.44,1.54-.55h.3c1.25,0,1.88.34,1.88,1.02,0,.37-.19.66-.55.85-.71.2-1.65.4-2.82.6-.06.03-.13.04-.21.04h-.13v2.22ZM429.97,91.84c1.17-.2,2.43-.43,3.8-.68v-3.07c-.09.11-.2.21-.34.3-.83.23-1.88.46-3.16.68-.09.03-.17.04-.26.04h-.09c0,.85.01,1.76.04,2.73ZM433.05,94.91c.17,0,.47.03.9.09.68.31,1.41.67,2.18,1.07.94.6,1.55,1.14,1.84,1.62.26.46.38.94.38,1.45s-.14,1.04-.43,1.58c-.31.43-.74.64-1.28.64-.63,0-1.07-.21-1.32-.64-.23-.31-.53-.93-.9-1.84-.57-1.57-.95-2.53-1.15-2.9-.26-.43-.38-.73-.38-.9,0-.11.06-.17.17-.17ZM450.17,72.32c.4,0,1.41.33,3.03.98,1.25.66,1.88,1.19,1.88,1.62,0,.26-.17.46-.51.6-1.25.6-2.08.95-2.48,1.07-.6.14-1.38.43-2.35.85-1.62.71-2.92,1.21-3.88,1.49v.04l-.21.6c-.2.57-.3,1.05-.3,1.45-.03,1.28-.07,2.49-.13,3.63,2.39-.57,4.9-1.31,7.52-2.22.68-.23,1.31-.34,1.88-.34.65,0,1.41.23,2.26.68.88.48,1.32,1,1.32,1.54,0,.6-.34.94-1.03,1.03-.77.03-1.64.1-2.6.21-.71.09-1.51.18-2.39.3.94.4,1.41.8,1.41,1.2,0,.29-.07.6-.21.94-.43.6-.64,1.71-.64,3.33,0,5.49-.1,9.05-.3,10.68-.11,1.76-.38,3.13-.81,4.1-.51,1.08-1,1.62-1.45,1.62-.51,0-.84-.58-.98-1.75-.26-.31-.38-5.71-.38-16.18,0-1.34-.19-2.46-.55-3.37-.54.06-1.07.11-1.58.17-.2.06-.34.09-.43.09-.37-.09-.73-.2-1.07-.34-.06,1.37-.13,2.59-.21,3.67-.2,2.48-.57,4.44-1.11,5.89-.71,1.91-1.69,3.42-2.95,4.53-.83.74-1.38,1.11-1.67,1.11h-.17c.4-.88.77-1.84,1.11-2.86.54-1.74.92-3.42,1.15-5.04.31-2.05.47-5.44.47-10.16,0-1.34-.11-2.46-.34-3.37-.06-.71-.41-1.35-1.07-1.92-.11-.11-.17-.24-.17-.38,0-.34.41-.51,1.24-.51,1.25,0,2.41.26,3.46.77.03.03.06.04.09.04.8-.54,1.51-1.05,2.14-1.54.8-.63,1.44-1.35,1.92-2.18.26-.46.51-1.07.77-1.84,0-.14.11-.21.34-.21Z"></path><path class="cls-2" d="M490.65,76.12c.23,0,.65.1,1.28.3.71.46,1.07.86,1.07,1.2,0,.31-.04.6-.13.85-.11.29-.28.46-.51.51-2.48.43-5.03.8-7.64,1.11.54.29.81.54.81.77-.03.17-.06.33-.09.47-.09.26-.17.64-.26,1.15.97-.23,1.85-.47,2.65-.73.23-.11.48-.17.77-.17.23,0,.65.1,1.28.3.74.46,1.11.85,1.11,1.19,0,.31-.06.6-.17.85-.11.29-.29.46-.51.51-1.79.34-3.63.66-5.51.94-.06.68-.13,1.45-.21,2.31,1.76-.28,3.57-.62,5.42-1.02.63-.11,1.24-.17,1.84-.17s1.25.23,1.96.68c.6.37.9.88.9,1.54,0,.6-.16.9-.47.9-3.67,0-7.12.14-10.33.43.14.06.27.1.38.13.82.2,1.24.58,1.24,1.15,0,.11-.11.31-.34.6-.29.46-.5.94-.64,1.45,4.58-.51,8.28-1.01,11.1-1.49.31-.06.58-.09.81-.09.8,0,1.74.3,2.82.9.94.71,1.41,1.45,1.41,2.22s-.33,1.15-.98,1.15c-.74,0-1.95-.09-3.63-.26-1.05-.17-1.96-.26-2.73-.26-3.3,0-6.22.07-8.75.21,1.79,1.71,3.34,2.99,4.65,3.84.97.74,2.25,1.48,3.84,2.22,1.42.83,4.53,1.92,9.31,3.29,0,.4-.1.63-.3.68-2.19.14-4.48.21-6.88.21-2.14,0-3.39-.17-3.76-.51-2.85-2.39-5.59-5.17-8.24-8.33-.4.97-.87,1.84-1.41,2.6-1.19,1.88-2.62,3.3-4.27,4.27-1.2.68-2.58,1.27-4.14,1.75-1.31.37-2.79.56-4.44.56-.23,0-.34-.06-.34-.17,1.57-.57,2.83-1.15,3.8-1.75,1.82-.97,3.32-2.06,4.48-3.29,1.68-1.45,2.88-3.07,3.59-4.87.03-.06.04-.14.04-.26-.11.03-.23.04-.34.04-2.9.29-5.72.7-8.45,1.24-.63.2-1.21.3-1.75.3-.68,0-1.44-.36-2.26-1.07-.66-.74-.98-1.22-.98-1.45,0-.11.11-.17.34-.17,2.05,0,6.48-.37,13.28-1.11.29-.03.56-.06.81-.09.06-.46.09-.93.09-1.41,0-.71-.07-1.19-.21-1.45-.06-.2-.09-.37-.09-.51-1.42.17-2.9.41-4.44.73-.68.17-1.11.26-1.28.26-.46,0-1.01-.27-1.67-.81-.6-.43-.9-.78-.9-1.07,0-.11.06-.17.17-.17,3.36-.43,6.33-.81,8.93-1.15v-2.35c-.63.06-1.15.09-1.58.09-1.62,0-2.69-.37-3.2-1.11-.37-.46-.55-.77-.55-.94,0-.23.11-.34.34-.34,1.91-.11,3.56-.26,4.95-.43-.03-.88-.07-1.48-.13-1.79-.14-.31-.27-.55-.38-.73-1.37.14-2.43.21-3.2.21-1.65,0-2.73-.37-3.25-1.11-.34-.45-.51-.77-.51-.94,0-.23.1-.34.3-.34,4.24-.2,7.6-.5,10.08-.9,1.85-.34,3.52-.73,5-1.15.31-.11.66-.17,1.03-.17ZM475.96,70.83c.37,0,.83.07,1.37.21,1.28.34,2.25.77,2.9,1.28.57.48.85,1.18.85,2.09,0,.43-.23.85-.68,1.28-.46.4-.91.6-1.37.6-.31,0-.6-.2-.85-.6-.57-.63-1.35-1.99-2.35-4.1-.14-.2-.21-.34-.21-.43.03-.23.14-.34.34-.34ZM488.43,68.57c.51,0,1.42.23,2.73.68,1.34.71,2.01,1.3,2.01,1.75,0,.2-.21.38-.64.55-.46.17-1,.51-1.62,1.02-2.39,1.88-4.24,3.12-5.55,3.72-.11,0-.17-.06-.17-.17.46-.74.83-1.38,1.11-1.92.51-.82.92-1.74,1.24-2.73.23-.54.34-.94.34-1.2,0-.11-.06-.26-.17-.43-.11-.26-.17-.44-.17-.56,0-.48.3-.73.9-.73Z"></path><path class="cls-2" d="M525.15,68.05c.74,0,1.69.4,2.86,1.2,1.02.66,1.54,1.3,1.54,1.92,0,.14-.19.3-.56.47-.46.31-.71.63-.77.94-.06.11-.14.21-.26.3.74.31,1.42.81,2.05,1.5,2.25,2.22,4.46,4.04,6.62,5.47,2.31,1.57,6.09,3.27,11.36,5.12v.38c0,.14-.27.24-.81.3-2.59.37-4.88.55-6.88.55-.97,0-1.58-.13-1.84-.38-2.22-1.76-4.98-4.67-8.28-8.71-.63-.71-1.45-1.52-2.48-2.43-.23-.2-.44-.38-.64-.56-2.45,3.25-4.7,5.84-6.75,7.77-1.96,2.05-4.1,3.83-6.4,5.34-1.25.83-2.82,1.64-4.7,2.43-.71.29-1.17.43-1.37.43-.11,0-.17-.04-.17-.13,1.68-1.25,3.53-2.79,5.55-4.61,2.9-2.82,5.27-5.44,7.09-7.86,1.79-2.59,3.07-4.6,3.84-6.02.43-.77.64-1.5.64-2.18l-.17-.9c0-.23.17-.34.51-.34ZM529.72,83.26c.51,0,1.45.34,2.82,1.03,1.65.97,2.48,1.65,2.48,2.05,0,.14-.09.3-.26.47-.54.71-1,1.57-1.37,2.56-.26,1.2-.67,2.59-1.24,4.19-.29.57-.73,1.04-1.32,1.41-.48.2-.91.3-1.28.3-.26,0-.47-.17-.64-.51-1.22.03-2.43.17-3.63.43-1.2.26-1.92.38-2.18.38h-.09l-.21,7c1.65-.6,3.27-1.15,4.87-1.67.37,0,.55.16.55.47,0,.23-.34.58-1.02,1.07-3.36,2.31-5.21,3.64-5.55,4.01-.8.85-1.34,1.28-1.62,1.28-.54,0-1.03-.4-1.45-1.19-.51-.6-.77-1.07-.77-1.41,0-.46.06-.78.17-.98.2-.29.44-.68.73-1.2.31-.43.48-1.15.51-2.18.31-2.79.47-5.69.47-8.71s-.16-4.9-.47-5.64c-.2-.51-.47-.91-.81-1.2-.17-.2-.26-.34-.26-.43,0-.43.21-.64.64-.64,1.48,0,2.59.24,3.33.73,2.31-.29,4.84-.83,7.6-1.62ZM523.28,86.46l-.09,2.69c1.62-.37,2.65-.61,3.07-.73.11-.03.26-.04.43-.04,1.25,0,1.88.36,1.88,1.07,0,.34-.19.61-.55.81-1.05.23-2.48.46-4.27.68-.09.03-.19.04-.3.04-.09,0-.19-.01-.3-.04l-.09,2.48c.4-.06.85-.16,1.37-.3,1.02-.17,1.85-.4,2.48-.68.14-.09.3-.13.47-.13.54,0,1.01.2,1.41.6.34-1.28.6-2.56.77-3.84.11-.88.17-1.68.17-2.39,0-.65-.27-.98-.81-.98-2.45.4-4.33.66-5.64.77ZM524.43,78.35c.68,0,1.57.16,2.65.47,1.03.31,1.69.64,2.01.98.31.31.47.67.47,1.07,0,1.05-.57,1.58-1.71,1.58-.57,0-1.31-.57-2.22-1.71-1.02-1.2-1.54-1.94-1.54-2.22,0-.11.11-.17.34-.17ZM534.55,93.04c.34,0,.95.29,1.84.85.82.57,1.24,1.08,1.24,1.54,0,.31-.3.58-.9.81-.97.29-2.05.71-3.24,1.28-1.05.54-1.89.94-2.52,1.2,1.94.77,3.66,1.57,5.17,2.39,1.34.68,2.46,1.81,3.37,3.37.29.54.46,1.05.51,1.54,0,.66-.36.98-1.07.98-.83,0-1.32-.11-1.49-.34-1.88-1.17-3.63-2.45-5.25-3.84-2.65-2.33-5.24-4.23-7.77-5.68-.23-.11-.34-.23-.34-.34s.11-.17.34-.17c1.99.54,3.84,1.12,5.55,1.75.83-.66,1.54-1.34,2.14-2.05.57-.66,1.2-1.62,1.88-2.9.17-.26.36-.38.55-.38Z"></path></g><g><g><path class="cls-1" d="M249.76,40.68c3.57.83,7.39-1.32,8.26-4.66.52-1.99-.48-4.07-2.31-4.78-1.87-.72-3.04-.25-4.14,1.93-.73,1.46-1.67,1.57-2.99.94-1.57-.75-2.26-2.04-2.36-3.7-.25-4.44,3.49-7.96,8.09-7.48,1.79.19,3.55.74,5.41,1.15-1.09-4.68-4.32-6.38-9.03-6.58.76-.96,1.17-1.99,1.87-2.26,2.22-.85,4.55-1.41,6.9-2.09.28-1.47.43-3.3,1.04-4.95.33-.89,1.37-1.83,2.27-2.08.54-.15,1.8.87,2.09,1.62.73,1.86,1.09,3.86,1.62,5.9,6.19.55,7.04.95,7.81,3.75-3.49,1.47-8.06,1.67-8.46,7.16,1.17-.5,2.09-.97,3.06-1.3,4.74-1.6,9.35.83,10.39,5.48.42,1.88.16,3.63-1.45,4.9-1.42,1.13-3.1.86-3.86-.54-1.23-2.24-2.47-2.67-4.5-1.58-2.07,1.11-2.67,2.98-1.62,5.03,1.5,2.93,4.2,4.61,7.18,4.26,3.56-.41,5.9-2.51,7.02-5.83,1.17-3.5,1.09-7.1.31-10.7-1.32-6.1-5.09-10.57-9.57-14.63-3.47-3.15-6.77-6.47-10.08-9.64-4.54,4.45-9.62,9.04-14.23,14.06-4.99,5.44-6.69,12.07-5.45,19.4.6,3.51,3.3,6.43,6.71,7.22Z"></path><path class="cls-1" d="M200.08,56.05c2.17,8.19,7.12,13.87,15.23,16.62,5.03,1.7,10.16-1.3,10.99-6.37.39-2.42-.8-5.06-2.77-6.15-1.65-.91-3.39-.5-4.87,1.03-1.3,1.35-.92,2.56.18,3.73.95,1,.59,1.86-.15,2.72-1.15,1.32-3.16,1.59-4.97.69-4.05-2.01-5.15-7.1-2.29-10.89,1.03-1.37,2.27-2.58,3.56-4.03-4.9-1.95-7.22,1.89-10.18,4.25-2.29-3.52-.81-6.4.84-8.67-1.63-1.84-3.35-3.31-4.44-5.15-1.06-1.79-.34-2.95,1.74-2.91,2.03.03,4.06.71,6.5,1.19.68-.84,1.71-2.13,2.78-3.41,1.16-1.39,2.5-2.2,4.48-1.24-1.72,5.06-1.84,9.13,1.81,10.58.18-1.2.26-2.41.54-3.57,1.23-5.1,6.94-7.61,11.23-4.98,1.78,1.09,2.45,2.69,1.88,4.61-.34,1.13-.78,1.94-2.33,1.5-1.83-.52-2.93.33-3.39,2.19-.47,1.91.46,3.81,2.31,4.6,1.94.82,3.78.52,5.52-.59,4.5-2.85,4.8-9.37.54-13.16-5.52-4.89-12.04-6.85-19.2-5.3-6.86,1.48-13.58,3.62-20.03,5.39.89,3.14,1.94,6.63,2.87,10.15.63,2.36,1.01,4.79,1.64,7.15Z"></path><path class="cls-1" d="M178.32,71.14c-1.06,1.59-2.36,3.43-3.52,5.34-.28.46-.38,1.34-.13,1.77,1.19,2,2.53,3.91,3.65,5.59,1.55-2.27,3.03-4.44,4.31-6.32-1.41-2.09-2.86-4.23-4.31-6.38Z"></path><path class="cls-1" d="M292.29,37.41c-1.47,1.03-2.75,2.59-3.59,4.19-2.14,4.04-.45,8.92,3.44,10.71,1.91.88,3.77.76,5.53-.38,1.49-.96,1.96-2.83,1.28-4.64-.62-1.65-1.79-1.91-3.41-1.72-.63.07-1.68-.55-1.98-1.15-.95-1.88.02-4.01,2.12-5.15,4.38-2.38,9.63.25,10.86,5.46.27,1.14.44,2.3.7,3.67,3.77-3.46,3.48-7.2,1.47-11.3,4.34-.1,6.26,2.54,7.62,5.98,2-2.01,4.2-2.61,6.73-2.17,1.55.27,2.07,1,1.55,2.57-.84,2.52-2.56,4.07-5.15,4.89,2.04,2.85,3.68,5.66,1.39,9.1-1.7-1.32-3.23-2.62-4.87-3.74-1.78-1.22-3.66-1.3-5.71-.07,1.16,1,2.25,1.81,3.19,2.77,3.57,3.62,2.75,9.79-1.54,11.88-2.14,1.04-4.15.59-5.3-1.16-.51-.78-.71-1.42.2-2.15,1.5-1.21,1.13-2.61.07-3.9-1.57-1.91-4.44-1.83-6.09.11-3.08,3.62-1.37,9.33,3.42,11.25,3.49,1.4,6.73.47,9.79-1.3,6.32-3.66,10.21-9.15,11.89-16.21,1.3-5.48,1.66-11.21,4.45-16.16-6.18-1.75-12.15-3.58-18.19-5.13-7.15-1.83-13.85-.48-19.86,3.75Z"></path><path class="cls-1" d="M347.36,83.74c1.26-1.9,2.37-3.48,3.35-5.13.29-.48.51-1.33.27-1.73-1.16-1.98-2.47-3.86-3.61-5.58-1.47,2.12-2.86,4.13-4.35,6.3,1.29,1.83,2.73,3.86,4.34,6.15Z"></path><path class="cls-1" d="M310.51,7.42c-.92-1.88-1.9-3.96-2.97-5.98-.2-.38-.81-.77-1.22-.76-2.21.07-4.41.26-6.41.39,1.04,2.49,2.03,4.85,2.89,6.89,2.58-.18,5.09-.36,7.72-.54Z"></path><path class="cls-1" d="M234.59,116.57c3.51-2.95,4.23-7.81,1.86-11.33-1.74-2.6-4.96-3.75-7.59-2.73-1.88.73-2.83,2.48-2.44,4.52.36,1.9,1.14,2.51,3.5,2.33,1.5-.11,2.09.54,2.36,1.89.39,1.94-.46,3.25-1.98,4.25-4.17,2.72-9.92.19-11.22-4.98-.3-1.2-.39-2.46-.6-3.87-4.29,3.24-2.82,7.24-1.75,11.14-4.41.66-5.69-2.78-7.57-5.46-.71.38-1.29.86-1.95,1-1.53.33-3.1.7-4.65.67-1.51-.03-2.02-1-1.53-2.57.78-2.51,2.57-3.91,4.86-4.77-.79-3.07-3.9-5.76-.99-9.13,1.64,1.32,3.07,2.62,4.65,3.7,1.74,1.18,3.61,1.42,5.55.15-1.38-1.48-2.8-2.74-3.89-4.23-2.78-3.78-1.15-9.2,3.12-10.74,1.67-.61,3.13-.38,4.43.93,1.23,1.25.17,2.26-.29,3.31-.84,1.94-.46,3.15,1.37,4.16,1.7.94,3.22.65,4.59-.65,2.86-2.71,2.52-7.64-.77-10.24-3.02-2.38-6.34-2.68-9.82-1.13-8.36,3.73-12.81,10.39-14.57,19.19-.95,4.78-2.23,9.48-3.42,14.47,6.18,1.69,12.64,3.76,19.24,5.19,7.22,1.57,13.83-.31,19.51-5.07Z"></path><path class="cls-1" d="M225.86,1.11c-2.11-.16-4.21-.39-6.3-.44-.52-.01-1.29.44-1.55.89-1.1,2-2.04,4.07-2.93,5.88,2.66.18,5.22.36,7.66.53.98-2.15,2.01-4.44,3.11-6.86Z"></path><path class="cls-1" d="M215.02,147.52c.9,1.8,1.79,3.8,2.9,5.67.33.56,1.28,1.04,1.96,1.05,1.98.02,3.95-.22,5.8-.35-1.04-2.49-2.02-4.82-2.89-6.91-2.53.17-5.14.35-7.76.53Z"></path><path class="cls-2" d="M262.81,56.54c-11.59,0-20.99,9.39-20.99,20.99s9.4,20.99,20.99,20.99,20.99-9.39,20.99-20.99-9.4-20.99-20.99-20.99ZM262.81,94.79c-9.53,0-17.26-7.73-17.26-17.27s7.73-17.26,17.26-17.26,17.26,7.73,17.26,17.26-7.73,17.27-17.26,17.27Z"></path><path class="cls-2" d="M338.89,81.67c-.97.26-2.06,1.36-2.37,2.32-.21.64.77,1.78,1.41,2.54.37.44,1.13.55,1.85.87-2.32,3.11-4.26,3.99-6.74,3.14-2.88-.98-4.35-3.17-4.39-6.56-.01-.68,0-1.37,0-2.04-5.34,0-8.41-1.37-10.83-4.74,3.2-2.36,6.2-5.17,10.66-4.05.83-3.87.17-8.37,5.57-8.94,2.43-.26,4.51,1.13,5.38,3.52-.28.13-.56.28-.85.39-1.31.47-2.27,1.21-2.26,2.77,0,1.48.94,2.17,2.15,2.66,1.44.57,2.5-.09,3.42-1.1,1.41-1.55,1.57-3.34.91-5.24-1.87-5.46-8.89-7.68-13.54-4.21-1.39,1.03-2.62,2.29-3.81,3.55-3.19,3.39-6.43,6.72-10.62,8.91-6.92,3.62-14.27,1.55-18.07-4.72-1.5-7.67-5.56-14.41-11.22-19.35-2.05-3.85-2.14-8.11-.18-12.8,2.15-3.18,5.01-5.55,8.57-6.94,2.45-.96,5-1.68,7.52-2.43,2.34-.69,4.85-.97,7.04-1.96,5.31-2.39,6.93-9.33,3.42-13.74-1.5-1.88-4.01-2.81-5.81-1.83-.9.49-2,1.61-2.02,2.48-.03,1.01.81,2.38,1.68,2.96.6.39,1.93-.28,2.91-.57.4-.12.73-.47,1.09-.72,1.48,2.67,1.39,5.18-.22,7.09-1.52,1.8-4.08,2.27-6.76,1.19-1.12-.45-2.2-1-3.3-1.49-2.22,4.42-5.02,6.55-9.2,6.95-1.29-4.06-1.23-7.92,1.59-11.16-1.46-1.3-2.87-2.43-4.12-3.71-1.6-1.64-1.85-3.64-.9-5.51,1.19-2.33,3.15-3.4,5.66-3.07.06.81-.09,1.73.23,2.42.4.87,1.09,2.06,1.83,2.2.88.16,2.12-.45,2.85-1.11.54-.5.77-1.64.69-2.46-.23-2.38-2.17-4.02-4.76-4.28-5.34-.54-10.32,3.97-10.03,9.32.11,2.02.75,4.04,1.39,5.98,2.19,6.73,3.76,13.44.51,20.3-3.08,4.38-7.01,6.08-11.57,6.12-3.41-1.12-7.04-1.75-10.83-1.75s-7.76.7-11.31,1.93c-5.81-.18-10.91-3.93-12.27-9.85-.71-3.11-.64-6.55-.16-9.73.56-3.79,2.06-7.43,2.94-11.19,1.45-6.17-3.83-11.9-10.1-11.09-2.44.31-4.43,2.3-4.55,4.56-.1,1.88,1.16,3.15,3.09,3.15,1.75,0,2.52-.88,2.52-2.89v-1.67c2.75-.18,4.77.99,5.74,3.23.98,2.25.48,4.65-1.46,6.3-1.12.96-2.38,1.75-3.73,2.72,3.17,3.42,2.94,7.3,1.65,11.44-4.21-1.06-7.62-2.86-9-7.15-6.34,2.62-8.75,2.57-10.52-.16-1.44-2.23-1.24-4.87.51-6.63.14.13.29.26.42.4.87.92,1.99,1.98,3.13,1.04.92-.76,1.68-2.17,1.76-3.35.11-1.53-1.31-2.23-2.76-2.46-1.94-.31-3.54.32-4.83,1.81-3.83,4.45-2.22,11.71,3.2,13.98,1.77.74,3.67,1.18,5.55,1.62,4.54,1.06,9,2.28,12.9,4.97,6.14,4.23,7.75,11.67,4.42,17.71-5.56,4.9-9.55,11.55-11.06,19.1-3.84,6.49-11.33,8.65-18.58,4.48-3.45-1.99-6.28-5.07-9.34-7.71-1.8-1.56-3.33-3.47-5.27-4.8-4.44-3.05-11.41-.43-13.02,4.71-.74,2.36.1,4.94,1.95,5.97,1.47.83,3.64.24,4.39-1.18.72-1.39.06-2.94-1.64-3.79-.45-.22-.91-.4-1.37-.6.96-2.35,3.08-3.7,5.47-3.53,2.47.17,4.08,1.46,4.65,3.91.39,1.68.58,3.4.85,5.09,4.63-.42,7.77.88,10.65,4.37-2.88,3.17-6.28,5.09-10.77,4.28-.1.99-.16,1.76-.27,2.52-.1.77-.21,1.54-.39,2.29-.63,2.62-2.05,3.93-4.43,4.14-2.67.24-4.58-.88-5.75-3.51.36-.15.59-.26.82-.34,1.42-.54,2.75-1.39,2.29-3.06-.25-.92-1.25-1.91-2.15-2.32-1.47-.67-2.75.14-3.65,1.4-1.15,1.6-1.24,3.29-.51,5.13,1.88,4.73,9.14,8.21,14.45,3.13,3.5-3.34,7.1-6.57,10.78-9.71,1.44-1.23,3.11-2.37,4.87-3.03,6.18-2.28,12.6.37,16.01,6.08,1.55,7.38,5.46,13.87,10.89,18.7,2.78,4.86,2.38,10.63-1.23,15.12-2.68,3.33-6.4,4.87-10.35,6.03-3.58,1.05-7.24,1.9-10.74,3.18-5.74,2.1-7.61,9.1-3.9,13.92,1.82,2.38,5.33,2.88,7.14,1.04,1.16-1.17,1.03-2.39.26-3.69-.76-1.29-1.82-1.23-3-.74-.76.31-1.51.63-2.24.93-1.5-2.36-1.44-4.71.07-6.58,1.64-2.01,4.38-2.78,6.81-1.8,1.18.47,2.28,1.16,3.5,1.8,1.45-4.36,4.84-6.17,9.04-7.23,1.23,4.07,1.48,7.9-1.47,11.34,1.52,1.33,3.08,2.49,4.4,3.88,1.38,1.44,1.44,3.76.43,5.61-1.22,2.25-3.23,3.22-5.61,2.66.02-.37.17-.81.03-1.12-.5-1.12-.86-2.51-1.74-3.18-.49-.37-2.02.25-2.87.78-1.28.81-1.23,2.2-.76,3.49.67,1.83,2,2.95,3.94,3.33,4.44.88,9.35-1.98,10.22-6.47.42-2.16-.08-4.57-.5-6.81-.78-4.1-2.16-8.12-2.66-12.24-1.15-9.41,4.81-16.02,13.63-16.13,3.33,1.07,6.88,1.66,10.56,1.66s7.29-.6,10.65-1.68c1.44-.07,2.51.08,3.76.43,6.78,1.85,10.95,8.44,9.72,16.17-.76,4.75-2.29,9.37-3.37,14.07-1.33,5.79,2.98,11.16,8.9,11.17,2.96,0,5.41-1.73,5.59-4.25.07-.93-.39-2.37-1.07-2.78-.9-.54-2.43-.67-3.39-.26-.63.27-.77,1.78-1.05,2.76-.11.4-.02.86-.02,1.28-3.01.09-4.94-1.11-5.84-3.56-.87-2.38-.2-4.55,2.02-6.32,1.03-.82,2.13-1.56,3.26-2.37-3.1-3.6-2.92-7.4-1.59-11.45,4.17,1.11,7.61,2.87,8.97,7.12,1.59-.59,3.01-1.19,4.48-1.64,2.71-.83,4.48-.32,5.86,1.59,1.58,2.18,1.57,4.41-.14,6.94-.28-.24-.49-.39-.67-.56-1.07-.99-2.38-1.74-3.61-.68-.73.64-1.27,1.95-1.23,2.94.06,1.58,1.29,2.41,2.87,2.65,1.97.3,3.52-.36,4.79-1.87,4.32-5.17,1.59-12.86-5.25-14.84-4.39-1.27-8.82-2.43-13.12-3.98-8.75-3.16-11.76-12.31-7.54-19.64,1.55-1.38,2.97-2.88,4.25-4.51,0,0,.01,0,.01,0,1.64-2.1,3.05-4.39,4.18-6.83,1.13-2.44,1.99-5.03,2.52-7.75,3.56-5.74,10.5-8.06,16.98-5,2.96,1.4,5.58,3.65,8.13,5.78,2.56,2.15,4.76,4.72,7.25,6.95,2.01,1.79,4.49,2.15,7.1,1.59,3.97-.84,7.1-4.44,6.94-7.97-.11-2.49-2.05-4.42-4.27-3.84ZM262.81,108.28c-16.99,0-30.76-13.77-30.76-30.76s13.77-30.75,30.76-30.75,30.76,13.77,30.76,30.75-13.77,30.76-30.76,30.76Z"></path><path class="cls-1" d="M325.52,98.95c-2.1-7.88-6.86-13.44-14.51-16.42-3.84-1.49-7.78-.49-10.13,2.51-2.34,2.99-2.05,7.35.62,9.41,1.63,1.25,3.59,1.14,5.09-.29,1.44-1.38,1.52-2.28.07-4.17-.77-1-.57-1.75.15-2.56,1.46-1.64,3.97-1.74,5.96-.26,3.82,2.84,4.01,8.15.4,11.65-.89.86-1.82,1.67-2.86,2.61,5,1.97,7.54-1.47,10.41-4.16,2.31,3.5,1.02,6.39-.46,8.31,1.46,1.87,2.89,3.46,4.05,5.23,1.16,1.76.52,2.9-1.52,3.29-2.47.48-4.52-.37-6.35-1.92-4.75,6.1-5.1,6.35-7.39,5.19,1.56-6.83,1.3-8.55-1.67-10.35-.41,1.31-.72,2.62-1.23,3.86-.48,1.18-.98,2.43-1.77,3.39-2.37,2.85-6.91,3.11-9.75.7-1.41-1.19-1.66-2.66-1.15-4.37.51-1.68,1.77-1.1,2.95-1.23.85-.09,2.1-.79,2.32-1.48.34-1.09.37-2.63-.18-3.57-1.37-2.34-4.7-2.75-7.22-1.22-4.56,2.78-4.87,9.51-.5,13.29,6.92,5.96,14.82,6.94,23.39,4.4,5.34-1.58,10.71-3.04,15.72-4.46-.99-3.7-2.1-7.71-3.14-11.73-.49-1.87-.81-3.78-1.31-5.65Z"></path><path class="cls-1" d="M299.6,153.91c1.87.12,4.04.33,6.22.36.59,0,1.48-.34,1.74-.8,1.1-1.94,2-3.99,2.91-5.86-2.67-.24-5.23-.47-7.58-.68-1.03,2.2-2.13,4.53-3.29,6.98Z"></path><path class="cls-1" d="M275.29,114.19c-3.21-.6-6.84,1.63-7.73,4.75-.58,2.05.45,4.05,2.49,4.81,1.82.67,3.37.22,3.77-1.47.49-2.06,1.69-1.76,3.05-1.32,1.72.56,2.62,2.05,2.58,4.1-.11,4.59-4.42,7.99-8.93,6.99-1.53-.34-3.03-.85-4.83-1.37,1.31,4.8,4.44,6.67,8.97,6.7-1.54,4.47-5.51,3.52-8.63,4.19.16,2.46,0,4.65-1.73,6.47-1.17,1.22-2.32,1.39-3.07-.16-.97-2-1.62-4.17-2.51-6.56-.99-.11-2.59-.2-4.16-.5-1.73-.33-3.1-1.18-3.22-3.17,3.3-1.68,7.85-1.69,8.47-6.94-1.85.51-3.37,1.03-4.93,1.33-4.77.92-9.03-2.86-8.66-7.6.17-2.17,1.44-3.66,3.45-3.71.63-.02,1.61.52,1.85,1.06.66,1.45,1.49,2.48,3.17,2.24,1.7-.25,2.75-1.32,3.13-3.01.58-2.61-.77-5.03-3.45-6.2-4.68-2.05-10.33,1.15-11.26,6.49-1.25,7.19.15,13.85,5.12,19.3,4.59,5.04,9.59,9.72,14.3,14.45,4.48-4.24,8.8-8.22,12.98-12.32,5.89-5.76,8.22-12.81,7.05-20.95-.57-3.95-3.5-6.88-7.28-7.59Z"></path></g><path class="cls-3" d="M262.81,56.54c-11.59,0-20.99,9.39-20.99,20.99s9.4,20.99,20.99,20.99,20.99-9.39,20.99-20.99-9.4-20.99-20.99-20.99ZM262.81,94.79c-9.53,0-17.26-7.73-17.26-17.27s7.73-17.26,17.26-17.26,17.26,7.73,17.26,17.26-7.73,17.27-17.26,17.27Z"></path><path class="cls-1" d="M262.81,56.54c-11.59,0-20.99,9.39-20.99,20.99s9.4,20.99,20.99,20.99,20.99-9.39,20.99-20.99-9.4-20.99-20.99-20.99ZM262.81,94.79c-9.53,0-17.26-7.73-17.26-17.27s7.73-17.26,17.26-17.26,17.26,7.73,17.26,17.26-7.73,17.27-17.26,17.27Z"></path></g><g><path class="cls-1" d="M0,79.35c.75-2.01,1.69-2.44,3.55-1.5,9.55,4.83,19.65,7.61,30.25,8.51,28.66,2.45,55.14-4.33,79.37-20.11,7.31-4.76,13.65-10.8,19.3-17.59,2.03-2.43,2.84-5.2,2.7-8.2-.3-6.6,2.5-12.29,4.72-18.16.17-.46.61-.82,1.19-1.58.21.79.42,1.18.39,1.56-.56,7-.51,14.11-2.53,20.89-1.97,6.61-5.91,12.11-10.26,17.26-16.59,19.63-37.58,31.71-62.09,37.49-5.55,1.31-11.33,1.58-17.01,2.34-.33.04-.65.15-.97.22h-12.67c-2.63-.27-5.28-.22-7.91-.43-8.11-.64-15.56-3.14-22.1-8.21-1.8-1.4-3.3-3.12-4.6-5.03-.93-1.37-.95-2.95-1.18-4.5-.06-.39.12-.8-.15-1.16v-1.81Z"></path><path class="cls-1" d="M60.21,122.57c1.49-1.27,2.97-2.55,4.48-3.79,4.24-3.49,7.97-7.46,9.17-13.08.74-3.45,1-7.07,1.05-10.61.1-7.03,1.35-13.75,4.19-20.15.37-.84.81-1.65,1.22-2.47.17.05.35.09.52.14-.12,1.33-.24,2.67-.36,4-.48,5.45-.97,10.9-1.42,16.36-.67,8.14-2.57,15.93-6.53,23.07-1.05,1.89-2.38,3.75-3.99,5.13-2.28,1.97-5.22,2.01-8.09,1.79-.08-.13-.16-.26-.24-.38Z"></path><path class="cls-1" d="M95.27,51.39c2.19,1.92,4.21,3.5,6.02,5.3,1.68,1.68,1.88,3.82.93,5.99-1.16,2.65-2.8,4.94-5.06,6.74-.7.56-1.23.58-1.92-.07-1.81-1.69-3.65-3.34-5.55-4.92-.92-.77-1.17-1.43-.51-2.54,1.99-3.33,3.9-6.71,6.09-10.5Z"></path><path class="cls-1" d="M154.46,59.69c-.49,1.24-.76,2.64-1.51,3.67-1.36,1.86-2.97,3.55-4.56,5.22-.69.73-1.51.63-2.33-.1-1.67-1.46-3.42-2.84-5.18-4.19-.65-.5-.78-.93-.35-1.61,2.12-3.31,4.21-6.64,6.38-9.91.24-.37,1.08-.74,1.37-.58,2.69,1.45,5.1,3.21,5.82,6.52.06.29.09.59.14.88.07.03.14.07.21.1Z"></path><path class="cls-1" d="M14.59,59.84c-.69,1.47-1.21,3.07-2.13,4.37-1.11,1.56-2.52,2.91-3.88,4.27-.81.82-1.67.75-2.59-.07-1.63-1.44-3.36-2.77-5.08-4.09-.64-.49-.79-.94-.34-1.63,2.13-3.31,4.23-6.65,6.41-9.93.25-.37,1.12-.73,1.42-.56,2.69,1.54,5.18,3.31,5.79,6.76.04.25.09.49.14.74.09.05.18.1.27.15Z"></path><path class="cls-1" d="M149.58,77.91c-.03.51.03,1.04-.11,1.52-1.57,5.7-3.41,11.3-6.11,16.55-1.98,3.85-4.48,7.32-7.88,10-1.94,1.53-4.04,2.64-6.62,2.3-1.71-.22-2.47-1.22-1.89-2.91.3-.9.87-1.83,1.57-2.43,1.19-1.02,2.54-1.89,3.9-2.66,6.09-3.44,10.64-8.27,13.13-15.03.71-1.92,1.54-3.8,2.37-5.67.29-.65.74-1.23,1.11-1.85.18.06.35.12.53.17Z"></path><path class="cls-1" d="M137.48,78.6c-.64.17-1.23.61-1.82.96-1.27.75-2.51,1.57-3.81,2.28-3.7,2.03-7.21,1.15-10.57-.91-.75-.46-1.37-1.14-.94-2.26,1.59-4.14,5.18-5.29,8.71-2.73.9.65,1.67.52,2.36-.2.88-.91,1.25-1.98.81-3.3-1.12-3.32-4.49-4.5-7.68-2.31-5.19,3.56-9.2,8.28-11.9,14.08-1.04,2.23-.41,4.01,1.66,5.25,1.38.83,2.83,1.53,4.35,2.34-2.75,2.39-5.31,4.89-8.66,5.53.22-2.53.64-5.03.59-7.52-.05-2.29-1.3-4.11-3.41-5.06-2.1-.94-3.72.26-5.15,1.6-1.08,1.01-2.09,2.14-2.96,3.35-2.23,3.08-4.31,6.25-4.35,10.33,0,.35-.54.73-.89,1.02-2.06,1.77-4.49,3.24-6.12,5.35-3.19,4.12-6.19,8.45-8.81,12.96-4.41,7.57-10.06,13.83-17.11,18.83-1.81,1.28-3.44,2.83-5.1,4.32-.34.31-.42.92-.62,1.39.53.01,1.15.2,1.59,0,5.38-2.4,10.32-5.51,14.74-9.5,4.45-4.02,7.59-9.06,10.84-14.03,2.16-3.31,4.13-6.81,7.37-9.12,2.72-1.94,5.78-3.39,8.59-5.2,1.44-.93,2.94-1.37,4.57-1.3,4.61.19,8.32-1.77,11.66-4.84,6.58-6.04,13.16-12.08,20.82-16.7.97-.58,2.01-1.2,2.69-2.07.53-.69.55-1.79.8-2.71-.75.04-1.54-.04-2.25.15ZM106.1,97.02c-1.72,1.11-5.46.95-6.94-.42-.34-.31-.54-1.09-.42-1.55.38-1.6,2.5-3.11,4.23-3.35,1.15.51,2.41.84,3.41,1.56,1.39,1.01,1.17,2.82-.27,3.76Z"></path></g><g><path class="cls-1" d="M389.03,122.62c-.14.31-.31.58-.53.82s-.47.44-.77.61c-.29.17-.59.31-.89.41-.31.1-.65.18-1.01.23-.36.05-.72.09-1.09.12-.36.03-.72.04-1.07.04h-.91v1.45c0,.18,0,.34,0,.49,0,.15,0,.31,0,.49.01.33.02.61.03.85.01.24.07.43.18.59.09.13.26.27.52.4s.62.21,1.08.23v.15h-5.38v-.15c.28-.04.55-.1.81-.19.26-.08.46-.21.61-.37.06-.06.1-.15.13-.28.03-.12.06-.26.08-.42.02-.15.03-.32.04-.49.01-.17.02-.34.02-.51,0-.14,0-.34,0-.59,0-.25.01-.52.02-.81,0-.29,0-.59,0-.9v-3.9c0-.19,0-.37,0-.56,0-.19-.02-.37-.03-.54s-.05-.32-.08-.46-.09-.24-.16-.3c-.17-.16-.38-.27-.65-.33-.26-.06-.55-.11-.85-.15v-.15h.4c.21,0,.46,0,.75,0,.29,0,.6,0,.93,0s.67,0,1,0c.33,0,.64,0,.93,0h.76c.74,0,1.4.03,1.97.1s1.11.23,1.61.48c.49.25.9.6,1.23,1.05s.49.99.49,1.6c0,.38-.07.72-.2,1.03ZM386.92,119.92c-.33-.46-.77-.81-1.3-1.05-.27-.11-.56-.19-.86-.23-.3-.04-.62-.06-.94-.06-.24,0-.42,0-.55.02s-.23.03-.31.04c-.01.06-.02.12-.04.16-.02.05-.03.11-.04.18-.01.07-.02.17-.03.3-.01.13-.02.31-.03.55-.01.36-.02.8-.03,1.31,0,.51,0,1.02,0,1.51v1.97c.46,0,.89-.01,1.29-.04.4-.03.78-.09,1.13-.21.72-.23,1.27-.6,1.65-1.12.38-.52.57-1.1.57-1.75,0-.6-.17-1.12-.5-1.59Z"></path><path class="cls-1" d="M400.55,129.48h-10.29v-.15c.28-.04.54-.11.78-.2.24-.09.44-.22.6-.39.06-.06.1-.15.13-.27s.06-.25.09-.41c.03-.15.05-.32.06-.49.01-.17.02-.34.02-.5,0-.14,0-.34,0-.59,0-.25.01-.52.02-.81,0-.29,0-.59,0-.9v-3.9c0-.19,0-.37,0-.57,0-.19-.02-.38-.03-.56-.02-.17-.05-.33-.08-.47s-.09-.24-.16-.3c-.17-.16-.35-.27-.54-.32-.19-.05-.44-.09-.74-.13v-.15h9.28l1.14,2.54-.17.08c-.91-1.04-1.76-1.74-2.56-2.1-.19-.08-.54-.15-1.06-.22-.52-.06-1.14-.09-1.88-.09-.24,0-.48,0-.73.02s-.43.03-.55.05c-.02.16-.04.5-.06,1.02-.02.51-.02,1.11-.02,1.79v.99c0,.27,0,.49,0,.66,0,.17,0,.3,0,.39v.17h.34c.17,0,.36,0,.58-.02.22-.01.44-.02.66-.04.22-.02.4-.04.55-.07.34-.07.62-.17.84-.29.22-.12.41-.27.55-.45.14-.17.25-.38.34-.61.08-.23.16-.49.23-.78h.2v4.86h-.2c-.09-.33-.23-.67-.41-1.02-.18-.35-.38-.61-.58-.79-.18-.14-.39-.26-.65-.35-.25-.09-.55-.15-.88-.17-.17,0-.31-.02-.42-.02-.11,0-.22,0-.34,0h-.77c-.02.14-.03.35-.03.63v1.85c0,.16,0,.32,0,.47,0,.15,0,.27,0,.38.01.33.03.64.06.93.03.29.09.51.19.65.1.14.34.25.72.31.38.06.8.09,1.24.09.19,0,.43,0,.73-.02.3,0,.61-.04.93-.08.36-.04.69-.12.99-.24.3-.12.59-.29.87-.5s.55-.48.82-.79c.26-.31.54-.69.82-1.13l.18.05-.84,2.94Z"></path><path class="cls-1" d="M411.48,129.48c-.1-.09-.17-.16-.22-.21-.04-.05-.1-.1-.15-.16s-.13-.15-.21-.27c-.08-.12-.22-.3-.4-.53-.21-.29-.4-.55-.56-.78-.16-.23-.33-.46-.5-.69-.17-.23-.35-.45-.55-.69-.2-.23-.43-.49-.7-.78-.22-.24-.47-.46-.73-.66-.26-.21-.54-.33-.83-.39-.21-.04-.38-.06-.49-.06-.1,0-.23,0-.39-.02v1.74c0,.49,0,.91.02,1.25.01.33.02.61.03.85.01.24.07.43.18.59.09.13.26.27.52.41.26.14.62.22,1.08.24v.15h-5.38v-.15c.28-.04.55-.1.81-.19.26-.08.46-.21.61-.37.06-.06.1-.15.13-.28.03-.12.06-.26.08-.42.02-.15.03-.32.04-.49.01-.17.02-.34.02-.51,0-.14,0-.34,0-.59,0-.25.01-.52.02-.81,0-.29,0-.59,0-.9v-3.9c0-.19,0-.37,0-.56,0-.19-.02-.37-.03-.54s-.05-.32-.08-.46-.09-.24-.16-.3c-.17-.16-.36-.27-.56-.33-.21-.06-.46-.11-.77-.15v-.15h.69c.38,0,.81,0,1.29,0s.96,0,1.45,0h1.18c.75,0,1.42.02,2,.06.58.04,1.12.18,1.6.42.49.24.89.56,1.19.96.3.41.45.92.45,1.53,0,.38-.08.72-.23,1.03-.15.3-.35.57-.61.8-.25.23-.55.43-.88.59-.34.16-.69.3-1.06.42v.05c.19.09.38.23.55.4.18.18.35.37.52.59.29.39.61.81.95,1.26.34.45.65.85.92,1.2.41.53.82.93,1.21,1.17.39.25.85.41,1.38.48v.15h-3.45ZM409.82,119.87c-.28-.4-.69-.72-1.23-.96-.27-.11-.55-.19-.85-.25s-.61-.08-.93-.08c-.24,0-.43,0-.57.02-.15.01-.26.02-.34.03-.01.06-.02.12-.03.16-.01.05-.02.11-.02.18,0,.07-.01.17-.02.3s-.01.31-.02.55c-.01.36-.02.77-.03,1.22,0,.45,0,.89,0,1.31v1.7c.46,0,.89-.02,1.29-.05.4-.04.78-.11,1.15-.22.36-.1.67-.24.92-.42.26-.17.47-.37.63-.59s.28-.46.36-.72c.08-.26.12-.52.12-.8,0-.51-.14-.97-.42-1.37Z"></path><path class="cls-1" d="M423.4,127.77c-.22.39-.52.72-.91,1-.39.28-.85.48-1.39.62-.54.13-1.13.2-1.77.2-.55,0-1.02-.03-1.41-.09s-.72-.14-.98-.22-.45-.17-.58-.24c-.13-.07-.21-.11-.24-.11s-.11.06-.22.19-.21.24-.3.35h-.15l-.05-3.07h.17c.1.28.23.55.39.81.16.26.33.51.51.74s.38.43.59.61c.21.18.41.31.6.4.19.09.44.19.76.28.31.09.62.14.91.14.83,0,1.5-.21,2.02-.63.52-.42.77-.98.77-1.69,0-.29-.05-.54-.15-.76-.1-.22-.24-.4-.41-.56-.17-.16-.38-.3-.61-.41-.24-.11-.49-.22-.76-.31-.27-.09-.51-.17-.71-.23-.2-.06-.39-.12-.56-.18-.17-.06-.35-.11-.54-.17s-.41-.13-.66-.22c-.29-.1-.57-.24-.84-.42-.27-.18-.5-.39-.71-.63s-.36-.51-.49-.8c-.12-.29-.18-.6-.18-.93,0-.56.11-1.03.33-1.43.22-.4.52-.74.89-1s.8-.46,1.29-.59c.49-.13,1-.19,1.54-.19.51,0,.94.04,1.3.12.36.08.65.16.88.25.23.09.4.18.52.25.12.08.18.12.19.12.03,0,.1-.06.21-.19.11-.12.2-.25.29-.37h.18v2.85h-.18c-.13-.34-.31-.68-.52-1.01-.21-.33-.46-.63-.74-.89-.28-.26-.6-.48-.96-.64s-.76-.25-1.19-.25c-.35,0-.68.05-.98.14-.31.09-.58.23-.81.42-.23.19-.41.41-.54.69s-.19.58-.19.93c0,.55.18.98.54,1.31.36.33.82.59,1.39.79.22.08.43.15.63.22.2.06.39.12.58.18.19.06.38.12.58.18.2.06.4.13.61.2.76.26,1.35.63,1.77,1.12.42.49.63,1.1.63,1.83,0,.49-.11.93-.33,1.33Z"></path><path class="cls-1" d="M425.29,129.48v-.15c.28-.04.54-.11.78-.2.24-.09.45-.23.61-.4.06-.06.1-.15.13-.26.03-.11.05-.25.07-.4s.03-.32.03-.49c0-.17,0-.34,0-.5,0-.14,0-.34,0-.59,0-.25.01-.52.02-.81,0-.29,0-.59,0-.9v-4.46c0-.19,0-.36-.03-.52-.02-.16-.04-.3-.08-.43-.03-.13-.08-.23-.15-.3-.16-.18-.35-.3-.58-.38-.23-.08-.49-.13-.78-.16v-.15h5.03v.15c-.24.03-.49.09-.76.17-.27.08-.48.25-.62.49-.1.18-.15.4-.16.66,0,.27-.01.52-.02.76,0,.26,0,.51,0,.76s0,.51,0,.76v5.17c0,.3,0,.59.02.86.01.28.06.47.15.59.13.18.35.31.64.4.29.09.55.15.79.17v.15h-5.1Z"></path><path class="cls-1" d="M438.69,129.48v-.15s.11-.01.24-.03.26-.06.4-.11.26-.12.37-.22c.11-.09.16-.21.16-.35,0-.09-.03-.24-.09-.45-.06-.21-.15-.47-.26-.77-.11-.3-.24-.64-.39-1.01-.15-.37-.3-.76-.47-1.16h-4.47c-.17.39-.33.76-.49,1.12-.16.35-.31.71-.47,1.07-.24.56-.35.95-.35,1.17,0,.13.04.24.13.33s.2.16.34.22c.14.06.29.1.45.12.16.03.32.05.46.07v.15h-3.58v-.17c.29-.03.54-.1.75-.22.21-.11.33-.19.36-.23.08-.07.21-.24.39-.51s.4-.66.66-1.19c.24-.48.5-1.03.79-1.65.29-.62.59-1.25.9-1.9.31-.65.61-1.31.92-1.97.3-.66.59-1.28.86-1.86l-.17-.34c.2-.08.38-.18.55-.29.16-.11.31-.23.43-.35.12-.12.23-.24.31-.35.08-.11.15-.21.19-.28h.13c.35.85.68,1.66.99,2.43.31.77.61,1.5.9,2.21.29.71.56,1.4.83,2.06.27.66.54,1.32.81,1.97.12.32.24.58.34.79.11.21.23.45.36.72.02.04.07.11.15.22.08.1.18.21.31.32.13.11.29.2.48.29.19.08.41.13.67.14v.19h-4.91ZM436.49,120.14c-.07.13-.17.34-.29.63-.13.29-.29.64-.48,1.05-.19.41-.4.88-.63,1.4-.23.52-.48,1.08-.75,1.69h4.19c-.19-.46-.38-.93-.58-1.39-.2-.46-.39-.91-.57-1.33-.18-.43-.35-.82-.51-1.17-.15-.35-.28-.65-.38-.87Z"></path><path class="cls-1" d="M456.29,118.83c-.25.14-.45.37-.58.66-.08.15-.13.44-.15.86-.02.42-.05.86-.07,1.33-.02.44-.04.96-.06,1.56-.02.6-.03,1.25-.03,1.93v.99c0,.36,0,.73,0,1.1,0,.37,0,.75,0,1.12v1s-.01.07-.04.1-.07.04-.13.04c-.09,0-.19-.05-.3-.15-.95-1.01-1.82-1.93-2.61-2.78-.79-.84-1.53-1.65-2.25-2.41-.71-.77-1.41-1.51-2.09-2.24-.68-.73-1.41-1.49-2.17-2.27v6.51c0,.52.01,1,.04,1.42.03.42.1.74.21.94.12.24.32.41.58.53.26.12.62.2,1.08.25v.15h-4.14v-.15c.27-.03.54-.1.81-.19.27-.1.48-.26.64-.48.16-.22.26-.53.3-.96.04-.42.08-.93.1-1.51.02-.44.04-.96.05-1.56.01-.6.02-1.25.02-1.93v-1.88c0-.21,0-.46-.02-.76-.03-.3-.11-.54-.24-.73s-.27-.34-.44-.45c-.17-.11-.35-.19-.55-.23-.2-.05-.38-.08-.56-.1v-.15h3.41l7.97,8.54v-5.24c0-.41,0-.8-.02-1.18-.01-.37-.06-.67-.15-.89-.11-.29-.31-.52-.6-.7-.29-.18-.7-.31-1.24-.38v-.15h4.17v.15c-.42.05-.75.15-1,.29Z"></path><path class="cls-1" d="M481.2,121.92c-.15-.51-.37-.98-.67-1.42-.3-.44-.65-.83-1.06-1.15-.41-.33-.87-.59-1.38-.78-.51-.19-1.05-.29-1.63-.29-.79,0-1.5.16-2.12.49-.62.33-1.14.76-1.56,1.3-.42.54-.74,1.15-.96,1.83-.22.68-.34,1.38-.34,2.1,0,.76.12,1.47.35,2.14.24.66.57,1.24,1.01,1.73.44.49.96.88,1.59,1.16.62.29,1.31.43,2.07.43.6,0,1.16-.1,1.68-.3.52-.2.99-.46,1.4-.79.41-.33.75-.7,1.03-1.13.28-.43.47-.87.58-1.32h.21l-.05,3.48h-.21c-.14-.18-.28-.34-.43-.49s-.25-.22-.31-.22c-.02,0-.13.06-.31.17-.18.11-.45.23-.79.36-.34.13-.76.25-1.26.35-.49.1-1.06.15-1.71.15-1.07,0-2.03-.14-2.9-.42-.86-.28-1.59-.68-2.2-1.19-.6-.51-1.07-1.12-1.39-1.84-.32-.71-.48-1.49-.48-2.35,0-.19.01-.41.04-.65.03-.24.08-.5.15-.78s.18-.56.31-.86c.13-.3.3-.6.51-.91.24-.36.54-.7.9-1.03s.78-.61,1.26-.86c.48-.25,1.03-.45,1.64-.59.61-.15,1.29-.22,2.05-.22.69,0,1.29.06,1.81.17.52.12.95.24,1.29.38s.61.26.79.38.29.17.31.17.07-.02.13-.07c.06-.05.13-.11.21-.17.07-.07.15-.15.23-.24s.15-.18.22-.28h.19v3.54l-.21.02Z"></path><path class="cls-1" d="M495.45,118.71c-.25.15-.44.37-.58.68-.03.07-.07.2-.09.36-.03.17-.05.36-.08.59-.02.22-.04.46-.05.7-.01.25-.02.49-.02.74-.01.45-.03.96-.04,1.52-.02.56-.04,1.19-.06,1.9-.01.2-.03.45-.04.76-.02.31-.07.63-.16.97s-.24.69-.44,1.03c-.2.34-.49.65-.85.93-.37.28-.84.5-1.41.67-.57.16-1.28.25-2.12.25s-1.53-.08-2.09-.24c-.57-.16-1.04-.37-1.4-.64-.37-.27-.65-.56-.85-.89-.2-.32-.35-.64-.45-.95-.1-.31-.16-.6-.17-.85-.02-.26-.03-.45-.03-.58,0-.3,0-.68,0-1.16,0-.47,0-1,0-1.58v-2.67c0-.19,0-.37-.03-.53-.02-.16-.04-.31-.08-.44-.03-.13-.09-.23-.16-.31-.16-.18-.36-.31-.59-.39-.24-.08-.5-.13-.8-.17v-.16h5.14v.16c-.16.02-.33.05-.52.09-.18.04-.35.11-.5.2s-.28.21-.38.37c-.1.16-.16.36-.17.6-.01.27-.02.52-.03.73,0,.21,0,.42,0,.62v3.15c0,.24,0,.48,0,.7,0,.23,0,.47,0,.72.01.56.1,1.07.28,1.53.17.46.41.85.72,1.17.31.32.69.57,1.14.74.45.17.96.26,1.53.26.66,0,1.21-.07,1.66-.21s.83-.33,1.14-.57c.3-.24.55-.52.72-.84.18-.32.31-.65.4-1.01.09-.36.14-.73.17-1.1.03-.37.04-.74.04-1.1v-2.69c0-.21,0-.43,0-.65,0-.22-.01-.43-.03-.63-.01-.2-.03-.39-.05-.56s-.06-.31-.1-.42c-.12-.3-.31-.54-.59-.72-.28-.18-.7-.31-1.25-.39v-.16h4.27v.16c-.43.05-.76.15-1.01.3Z"></path><path class="cls-1" d="M497.42,129.64v-.16c.29-.04.55-.11.8-.21.25-.1.46-.23.63-.41.06-.06.1-.15.13-.27.03-.12.05-.25.07-.41s.03-.32.03-.5c0-.17,0-.35,0-.51,0-.15,0-.35,0-.6,0-.25.01-.53.02-.83,0-.3,0-.61,0-.93v-4.57c0-.19,0-.37-.03-.53-.02-.16-.04-.31-.08-.44-.03-.13-.09-.23-.15-.31-.16-.18-.36-.31-.59-.39-.24-.08-.5-.13-.8-.17v-.16h5.15v.16c-.24.03-.5.09-.78.17-.28.08-.49.25-.64.51-.1.18-.16.41-.16.68,0,.27-.01.53-.03.78,0,.26,0,.53,0,.78s0,.52,0,.78v5.3c0,.31,0,.6.02.89.01.29.06.49.15.6.14.18.36.32.66.41.3.09.57.15.81.17v.16h-5.22Z"></path><path class="cls-1" d="M512.78,127.89c-.22.4-.53.74-.93,1.03-.4.28-.87.5-1.42.63-.55.14-1.15.2-1.81.2-.56,0-1.05-.03-1.45-.09s-.74-.14-1-.23-.46-.17-.59-.25c-.13-.07-.22-.11-.25-.11s-.11.06-.22.19-.22.25-.31.36h-.16l-.05-3.15h.17c.1.28.24.56.4.83.16.27.34.52.53.76s.39.45.6.62c.21.18.42.32.61.41.2.09.45.19.78.28.32.1.63.14.93.14.85,0,1.54-.21,2.07-.64.53-.43.79-1,.79-1.73,0-.3-.05-.55-.15-.78-.1-.22-.24-.41-.42-.58-.18-.16-.39-.3-.63-.42-.24-.12-.5-.22-.78-.32-.28-.09-.52-.17-.72-.24-.21-.06-.4-.12-.58-.18-.18-.06-.36-.12-.55-.17s-.42-.13-.68-.23c-.3-.11-.59-.25-.86-.44-.28-.18-.52-.4-.72-.65s-.37-.52-.5-.82c-.13-.3-.19-.62-.19-.96,0-.57.11-1.06.34-1.47.23-.41.53-.75.91-1.03s.82-.48,1.32-.61c.5-.13,1.03-.2,1.58-.2.52,0,.96.04,1.33.12.37.08.67.17.9.26.24.1.41.18.53.26.12.08.19.12.2.12.03,0,.11-.06.22-.19.11-.13.21-.25.3-.38h.19v2.93h-.19c-.14-.35-.32-.69-.53-1.04-.22-.34-.47-.65-.76-.92-.29-.27-.61-.49-.98-.66s-.78-.25-1.22-.25c-.36,0-.69.05-1.01.14-.32.1-.59.24-.83.43-.24.19-.42.42-.55.7s-.2.6-.2.96c0,.56.18,1.01.55,1.35.37.34.84.61,1.43.81.23.08.44.16.64.22.2.06.4.12.59.18.19.06.39.12.59.18.2.06.41.13.63.21.78.26,1.38.65,1.81,1.15.43.5.64,1.13.64,1.88,0,.51-.11.96-.34,1.36Z"></path><path class="cls-1" d="M514.72,129.64v-.16c.29-.04.55-.11.8-.21.25-.1.46-.23.63-.41.06-.06.1-.15.13-.27.03-.12.05-.25.07-.41s.03-.32.03-.5c0-.17,0-.35,0-.51,0-.15,0-.35,0-.6,0-.25.01-.53.02-.83,0-.3,0-.61,0-.93v-4.57c0-.19,0-.37-.03-.53-.02-.16-.04-.31-.08-.44-.03-.13-.09-.23-.15-.31-.16-.18-.36-.31-.59-.39-.24-.08-.5-.13-.8-.17v-.16h5.15v.16c-.24.03-.5.09-.78.17-.28.08-.49.25-.64.51-.1.18-.16.41-.16.68,0,.27-.01.53-.03.78,0,.26,0,.53,0,.78s0,.52,0,.78v5.3c0,.31,0,.6.02.89.01.29.06.49.15.6.14.18.36.32.66.41.3.09.57.15.81.17v.16h-5.22Z"></path><path class="cls-1" d="M534.36,118.71c-.26.15-.46.37-.59.68-.08.16-.13.45-.15.88-.02.43-.05.88-.07,1.37-.02.45-.04.99-.06,1.61-.02.62-.03,1.28-.03,1.99v1.01c0,.37,0,.75,0,1.13,0,.38,0,.77,0,1.15v1.03s-.01.08-.04.1-.07.04-.13.04c-.09,0-.19-.05-.31-.16-.98-1.03-1.87-1.98-2.67-2.85-.8-.86-1.57-1.69-2.3-2.48-.73-.79-1.44-1.55-2.15-2.3-.7-.75-1.44-1.52-2.22-2.33v6.68c0,.54.01,1.02.04,1.46.03.43.1.75.22.97.13.24.32.42.59.55.27.12.64.21,1.11.26v.16h-4.24v-.16c.28-.03.55-.1.83-.2.28-.1.49-.27.66-.5.16-.22.26-.55.31-.98.05-.43.08-.95.1-1.55.02-.45.04-.99.05-1.61.01-.62.02-1.28.02-1.99v-1.93c0-.21,0-.47-.02-.78-.03-.31-.11-.56-.24-.75s-.28-.35-.45-.46c-.17-.11-.36-.19-.56-.24-.2-.05-.39-.08-.58-.1v-.16h3.5l8.17,8.77v-5.38c0-.42,0-.82-.02-1.21-.01-.38-.06-.69-.15-.91-.12-.3-.32-.54-.61-.72-.29-.18-.72-.31-1.27-.39v-.16h4.27v.16c-.43.05-.77.15-1.02.3Z"></path><path class="cls-1" d="M547.14,129.64h-10.55v-.16c.29-.04.55-.11.8-.21.25-.1.45-.23.61-.4.06-.06.1-.16.14-.28s.07-.26.09-.42c.03-.16.05-.32.06-.5.01-.17.02-.35.02-.51,0-.15,0-.35,0-.6,0-.25.01-.53.02-.83,0-.3,0-.61,0-.93v-4c0-.19,0-.38,0-.59,0-.2-.02-.39-.03-.57-.02-.18-.05-.34-.09-.48s-.09-.25-.16-.31c-.17-.17-.36-.28-.55-.32-.19-.05-.45-.09-.76-.13v-.16h9.51l1.17,2.61-.17.08c-.93-1.06-1.8-1.78-2.62-2.15-.19-.08-.56-.16-1.09-.22-.53-.06-1.17-.1-1.93-.1-.24,0-.49,0-.75.02s-.45.03-.56.06c-.02.17-.04.52-.06,1.04-.02.53-.03,1.14-.03,1.84v1.01c0,.27,0,.5,0,.67,0,.17,0,.31,0,.4v.17h.34c.17,0,.37,0,.59-.02.22-.01.45-.02.67-.04.22-.02.41-.04.56-.07.35-.07.63-.17.86-.3.23-.13.42-.28.56-.46.14-.18.26-.39.34-.62.09-.24.16-.5.23-.8h.21v4.98h-.21c-.09-.34-.23-.69-.42-1.04s-.39-.63-.59-.81c-.18-.15-.4-.27-.66-.36-.26-.09-.56-.15-.9-.17-.17-.01-.32-.02-.43-.02-.11,0-.23,0-.34,0h-.79c-.02.15-.03.36-.03.65v1.9c0,.17,0,.33,0,.48,0,.15,0,.28,0,.39.01.34.03.66.06.96.03.3.09.52.2.67.1.15.35.25.74.32.39.06.82.09,1.28.09.19,0,.44,0,.75-.02.3-.01.62-.04.96-.08.37-.04.71-.12,1.02-.25.31-.12.61-.29.9-.51s.57-.49.84-.81c.27-.32.55-.71.84-1.16l.19.05-.86,3.02Z"></path></g></g></g></svg>