<svg xmlns="http://www.w3.org/2000/svg" id="Layer_1" data-name="Layer 1" viewBox="0 0 169.72 199.67"><defs><style>.cls-1{fill:#d8a438;}</style></defs><path class="cls-1" d="M85.2,19.19l-14.7-10c3.9-2.59,8.34-5.71,13-8.48A4.84,4.84,0,0,1,87.61,1C92.07,3.67,96.34,6.68,100,9.15Zm84.54,80.06c-2.77-4.65-5.89-9.09-8.49-13-3.59,5.28-7,10.33-10,14.71l10,14.83c2.48-3.69,5.49-8,8.2-12.42A4.84,4.84,0,0,0,169.74,99.25ZM146.5,110.83c-3.43-1.92-8.47-.56-10.21,2.75s-.14,6.84,3.82,8.81c1,.51,2.12.93,3.17,1.39A12.63,12.63,0,0,1,130.56,132c-5.75-.39-9.5-3.39-10.82-9.09-.9-3.9-1.34-7.91-2-11.84-10.77,1-18.06-2-24.78-10.16,6.71-7.38,14.6-11.84,25-10,.23-2.3.37-4.1.62-5.86a52.7,52.7,0,0,1,.89-5.32c1.47-6.11,4.77-9.15,10.3-9.64,6.21-.56,10.65,2,13.38,8.17-.83.36-1.36.6-1.91.8-3.31,1.27-6.39,3.23-5.33,7.11a9.81,9.81,0,0,0,5,5.39c3.41,1.55,6.39-.33,8.48-3.26,2.67-3.73,2.88-7.66,1.18-11.93-4.38-11-21.25-19.09-33.6-7.29Q104.83,80.76,92,91.71c-1.09.93-2.27,1.79-3.46,2.64V88.47a37.82,37.82,0,0,1,2.33-4.81c4.63-8,11.79-14.61,17.93-21.74,3.62-4.18,8.06-7.74,11.16-12.25,7.1-10.34,1-26.55-11-30.29-5.49-1.72-11.48.24-13.89,4.53-1.92,3.43-.56,8.47,2.75,10.2s6.83.14,8.8-3.81c.52-1,.93-2.13,1.4-3.18a12.65,12.65,0,0,1,8.22,12.73c-.4,5.74-3.39,9.49-9.09,10.82-3.91.9-7.91,1.34-11.84,2,1,10.78-2,18.07-10.17,24.78-7.37-6.7-11.84-14.6-10-25-2.31-.24-4.1-.37-5.87-.62a53.21,53.21,0,0,1-5.32-.9c-6.1-1.47-9.15-4.76-9.64-10.3-.56-6.21,2-10.64,8.17-13.38.36.84.6,1.37.8,1.92,1.27,3.31,3.23,6.39,7.11,5.32a9.72,9.72,0,0,0,5.39-5C77.38,26,75.51,23,72.57,21c-3.73-2.67-7.66-2.88-11.92-1.19-11,4.39-19.09,21.26-7.29,33.61Q65,65.58,76,78.44a41.72,41.72,0,0,1,6,9.09v3.38c0-.07,0-.13-.07-.2v1.84C74.71,87.93,68.54,81.48,62,75.8c-4.18-3.62-7.74-8.06-12.26-11.16-10.33-7.09-26.55-1-30.29,11-1.72,5.49.24,11.48,4.53,13.89,3.43,1.93,8.47.57,10.21-2.74s.14-6.84-3.82-8.81c-1-.51-2.12-.93-3.17-1.4a12.64,12.64,0,0,1,12.72-8.22c5.75.4,9.5,3.4,10.82,9.09.9,3.91,1.34,7.91,2,11.84,10.77-1,18.06,2,24.78,10.17-6.71,7.37-14.6,11.84-25,10-.23,2.3-.37,4.09-.62,5.86a53.18,53.18,0,0,1-.89,5.32c-1.47,6.1-4.77,9.15-10.3,9.64-6.21.56-10.65-2-13.38-8.17.83-.36,1.36-.6,1.91-.8,3.31-1.27,6.39-3.23,5.33-7.11a9.81,9.81,0,0,0-5-5.39c-3.41-1.55-6.39.32-8.48,3.26-2.67,3.73-2.88,7.66-1.18,11.93,4.38,11,21.25,19.09,33.6,7.28q12.21-11.64,25.07-22.59c1.09-.93,2.27-1.79,3.46-2.64v5.88a37.82,37.82,0,0,1-2.33,4.81c-4.63,8-11.79,14.61-17.93,21.73-3.62,4.18-8.06,7.74-11.16,12.26-7.1,10.34-1,26.55,11,30.29,5.49,1.72,11.48-.24,13.89-4.53,1.92-3.43.56-8.47-2.75-10.2s-6.83-.15-8.8,3.81c-.52,1-.93,2.12-1.4,3.18a12.66,12.66,0,0,1-8.22-12.73c.4-5.75,3.39-9.5,9.09-10.82,3.91-.9,7.91-1.34,11.84-2-1-10.77,2-18.06,10.17-24.77,7.37,6.7,11.84,14.6,10,25,2.31.24,4.1.37,5.87.62s3.57.48,5.32.89c6.1,1.47,9.15,4.77,9.64,10.3.56,6.22-2,10.65-8.17,13.38-.36-.83-.6-1.36-.8-1.91-1.27-3.31-3.23-6.39-7.11-5.33a9.78,9.78,0,0,0-5.39,5c-1.55,3.42.32,6.39,3.26,8.48,3.73,2.67,7.66,2.88,11.92,1.18,11-4.38,19.09-21.25,7.29-33.6q-11.64-12.21-22.59-25.07a42,42,0,0,1-6-9.09v-3.5l.07.13v-1.65c7.22,4.61,13.39,11.07,20,16.75,4.18,3.62,7.74,8.06,12.26,11.15,10.33,7.1,26.55,1,30.29-11C152.75,119.23,150.79,113.25,146.5,110.83ZM70.4,191.17c3.7,2.48,8,5.49,12.43,8.2a4.84,4.84,0,0,0,4.12.29c4.65-2.77,9.09-5.89,13-8.48l-14.7-10ZM9.19,84.53C6.71,88.23,3.7,92.5,1,97a4.84,4.84,0,0,0-.29,4.12c2.77,4.65,5.9,9.09,8.49,13l10-14.7C15.94,94.52,12.56,89.53,9.19,84.53Z" transform="translate(-0.36 -0.33)"></path></svg>