<svg xmlns="http://www.w3.org/2000/svg" fill="none" viewBox="0 0 200 200" id="X-Twitter-Logo--Streamline-Logos" height="200" width="200">
  <desc>
    X Twitter Logo Streamline Icon: https://streamlinehq.com
  </desc>
  <path fill="#ffffff" fill-rule="evenodd" d="m112.15 76.02033333333333 62.63166666666667 -66.38083333333334h20.763333333333335l-0.08916666666666667 0.098 -74.07666666666668 78.53333333333333 67.82083333333334 90.015c1.7233333333333336 2.2866666666666666 2.004166666666667 5.351666666666667 0.7266666666666667 7.915 -1.1958333333333333 2.3983333333333334 -3.5650000000000004 3.97 -6.210833333333333 4.161666666666667h-42.470000000000006c-2.165 -0.15666666666666668 -4.1675 -1.24 -5.485 -2.9875000000000003l-47.72416666666667 -63.3425 -62.26658333333334 66.33H4.45455l74.3527 -78.58083333333335L10.986916666666668 21.767083333333336c-1.7231666666666667 -2.2870000000000004 -2.0045833333333336 -5.351916666666667 -0.72675 -7.914500000000001 1.27775 -2.562666666666667 3.895 -4.182166666666666 6.7585 -4.182166666666666h41.37525c2.3712500000000003 0 4.604833333333334 1.11375 6.03175 3.007666666666667L112.15 76.02033333333333Zm-6.356666666666667 16.663833333333333c-0.2141666666666667 -0.24916666666666668 -0.4091666666666667 -0.5091666666666668 -0.5858333333333334 -0.7783333333333333L54.62816666666667 24.77475H32.16441666666667L145.55833333333334 175.27833333333334h22.464166666666667l-62.22916666666667 -82.59416666666668Z" clip-rule="evenodd" stroke-width="8.3333"></path>
</svg>